<svg xmlns="http://www.w3.org/2000/svg" viewBox="0 0 1280 320" width="1280" height="320" role="img" aria-label="ScriptPoblar"><defs><clipPath id="c"><rect width="1280" height="320" rx="18"/></clipPath><pattern id="p" width="64" height="80" patternUnits="userSpaceOnUse"><rect x="10" y="12" width="44" height="36" rx="4" fill="#0f172a"/><path d="M22,48 v-8 h20 v8" fill="#1e293b"/><circle cx="18" cy="64" r="3" fill="#22c55e"/><circle cx="46" cy="64" r="3" fill="#f59e0b"/></pattern></defs><g clip-path="url(#c)"><rect width="1280" height="320" fill="#94a3b8"/><rect width="1280" height="320" fill="url(#p)"/><rect x="14" y="16" width="36" height="30" rx="5" fill="#38bdf8"/><rect x="24" y="0" width="16" height="16" fill="#38bdf8"/><rect x="78" y="16" width="36" height="30" rx="5" fill="#f472b6"/><rect x="88" y="0" width="16" height="16" fill="#f472b6"/><rect x="142" y="16" width="36" height="30" rx="5" fill="#facc15"/><rect x="152" y="0" width="16" height="16" fill="#facc15"/><rect x="206" y="16" width="36" height="30" rx="5" fill="#4ade80"/><rect x="216" y="0" width="16" height="16" fill="#4ade80"/><rect x="270" y="16" width="36" height="30" rx="5" fill="#fb923c"/><rect x="280" y="0" width="16" height="16" fill="#fb923c"/><rect x="334" y="16" width="36" height="30" rx="5" fill="#a78bfa"/><rect x="344" y="0" width="16" height="16" fill="#a78bfa"/><rect x="398" y="16" width="36" height="30" rx="5" fill="#38bdf8"/><rect x="408" y="0" width="16" height="16" fill="#38bdf8"/><rect x="462" y="16" width="36" height="30" rx="5" fill="#f472b6"/><rect x="472" y="0" width="16" height="16" fill="#f472b6"/><rect x="526" y="16" width="36" height="30" rx="5" fill="#facc15"/><rect x="536" y="0" width="16" height="16" fill="#facc15"/><rect x="590" y="16" width="36" height="30" rx="5" fill="#4ade80"/><rect x="600" y="0" width="16" height="16" fill="#4ade80"/><rect x="654" y="16" width="36" height="30" rx="5" fill="#fb923c"/><rect x="664" y="0" width="16" height="16" fill="#fb923c"/><rect x="718" y="16" width="36" height="30" rx="5" fill="#a78bfa"/><rect x="728" y="0" width="16" height="16" fill="#a78bfa"/><rect x="782" y="16" width="36" height="30" rx="5" fill="#38bdf8"/><rect x="792" y="0" width="16" height="16" fill="#38bdf8"/><rect x="846" y="16" width="36" height="30" rx="5" fill="#f472b6"/><rect x="856" y="0" width="16" height="16" fill="#f472b6"/><rect x="910" y="16" width="36" height="30" rx="5" fill="#facc15"/><rect x="920" y="0" width="16" height="16" fill="#facc15"/><rect x="974" y="16" width="36" height="30" rx="5" fill="#4ade80"/><rect x="984" y="0" width="16" height="16" fill="#4ade80"/><rect x="1038" y="16" width="36" height="30" rx="5" fill="#fb923c"/><rect x="1048" y="0" width="16" height="16" fill="#fb923c"/><rect x="1102" y="16" width="36" height="30" rx="5" fill="#a78bfa"/><rect x="1112" y="0" width="16" height="16" fill="#a78bfa"/><rect x="1166" y="16" width="36" height="30" rx="5" fill="#38bdf8"/><rect x="1176" y="0" width="16" height="16" fill="#38bdf8"/><rect x="1230" y="16" width="36" height="30" rx="5" fill="#f472b6"/><rect x="1240" y="0" width="16" height="16" fill="#f472b6"/><rect x="14" y="256" width="36" height="30" rx="5" fill="#38bdf8"/><rect x="24" y="282" width="16" height="40" fill="#38bdf8"/><rect x="78" y="256" width="36" height="30" rx="5" fill="#f472b6"/><rect x="88" y="282" width="16" height="40" fill="#f472b6"/><rect x="142" y="256" width="36" height="30" rx="5" fill="#facc15"/><rect x="152" y="282" width="16" height="40" fill="#facc15"/><rect x="206" y="256" width="36" height="30" rx="5" fill="#4ade80"/><rect x="216" y="282" width="16" height="40" fill="#4ade80"/><rect x="270" y="256" width="36" height="30" rx="5" fill="#fb923c"/><rect x="280" y="282" width="16" height="40" fill="#fb923c"/><rect x="334" y="256" width="36" height="30" rx="5" fill="#a78bfa"/><rect x="344" y="282" width="16" height="40" fill="#a78bfa"/><rect x="398" y="256" width="36" height="30" rx="5" fill="#38bdf8"/><rect x="408" y="282" width="16" height="40" fill="#38bdf8"/><rect x="462" y="256" width="36" height="30" rx="5" fill="#f472b6"/><rect x="472" y="282" width="16" height="40" fill="#f472b6"/><rect x="526" y="256" width="36" height="30" rx="5" fill="#facc15"/><rect x="536" y="282" width="16" height="40" fill="#facc15"/><rect x="590" y="256" width="36" height="30" rx="5" fill="#4ade80"/><rect x="600" y="282" width="16" height="40" fill="#4ade80"/><rect x="654" y="256" width="36" height="30" rx="5" fill="#fb923c"/><rect x="664" y="282" width="16" height="40" fill="#fb923c"/><rect x="718" y="256" width="36" height="30" rx="5" fill="#a78bfa"/><rect x="728" y="282" width="16" height="40" fill="#a78bfa"/><rect x="782" y="256" width="36" height="30" rx="5" fill="#38bdf8"/><rect x="792" y="282" width="16" height="40" fill="#38bdf8"/><rect x="846" y="256" width="36" height="30" rx="5" fill="#f472b6"/><rect x="856" y="282" width="16" height="40" fill="#f472b6"/><rect x="910" y="256" width="36" height="30" rx="5" fill="#facc15"/><rect x="920" y="282" width="16" height="40" fill="#facc15"/><rect x="974" y="256" width="36" height="30" rx="5" fill="#4ade80"/><rect x="984" y="282" width="16" height="40" fill="#4ade80"/><rect x="1038" y="256" width="36" height="30" rx="5" fill="#fb923c"/><rect x="1048" y="282" width="16" height="40" fill="#fb923c"/><rect x="1102" y="256" width="36" height="30" rx="5" fill="#a78bfa"/><rect x="1112" y="282" width="16" height="40" fill="#a78bfa"/><rect x="1166" y="256" width="36" height="30" rx="5" fill="#38bdf8"/><rect x="1176" y="282" width="16" height="40" fill="#38bdf8"/><rect x="1230" y="256" width="36" height="30" rx="5" fill="#f472b6"/><rect x="1240" y="282" width="16" height="40" fill="#f472b6"/><rect x="0" y="86" width="1280" height="148" fill="#f8fafc"/><rect x="0" y="86" width="1280" height="6" fill="#cbd5e1"/><rect x="0" y="228" width="1280" height="6" fill="#cbd5e1"/><path fill="#0f172a" d="M409.6,156.2l15,0q0.3,2.7 1.6,3.9q1.4,1.2 3.6,1.2q1.9,0 3.2,-0.9q1.2,-1 1.2,-2.7q0,-2.3 -2.1,-3.5q-2.1,-1.2 -6.7,-2.7q-5,-1.7 -8.1,-3.2q-3,-1.6 -5.3,-4.6q-2.3,-2.9 -2.3,-7.8q0,-4.9 2.5,-8.4q2.4,-3.5 6.8,-5.3q4.3,-1.8 9.8,-1.8q8.8,0 14.1,4.2q5.3,4.1 5.7,11.6l-15.4,0q-0.1,-2.3 -1.4,-3.4q-1.3,-1.2 -3.4,-1.2q-1.6,0 -2.6,0.9q-1,1 -1,2.7q0,1.4 1.1,2.5q1.1,1 2.8,1.8q1.6,0.7 4.9,1.9q4.8,1.7 7.9,3.3q3.2,1.6 5.4,4.5q2.3,2.9 2.3,7.4q0,4.5 -2.3,8.1q-2.2,3.6 -6.5,5.7q-4.3,2.1 -10.1,2.1q-8.9,0 -14.6,-4.2q-5.7,-4.2 -6.1,-12.1zm64.3,-25.1q7.7,0 13,4.2q5.2,4.2 6.7,11.8l-15,0q-1.2,-4 -5,-4q-2.7,0 -4.2,2.2q-1.6,2.2 -1.6,6.5q0,4.2 1.6,6.4q1.5,2.3 4.2,2.3q3.8,0 5,-4l15,0q-1.5,7.5 -6.7,11.8q-5.3,4.2 -13,4.2q-6,0 -10.6,-2.5q-4.7,-2.5 -7.3,-7.2q-2.6,-4.7 -2.6,-11q0,-6.3 2.6,-11q2.6,-4.7 7.3,-7.2q4.6,-2.5 10.6,-2.5zm52.7,0.1l0,15.1l-4,0q-4.6,0 -6.8,1.8q-2.2,1.8 -2.2,6.3l0,17.6l-14.1,0l0,-40.4l14.1,0l0,7.1q2.3,-3.4 5.7,-5.4q3.4,-2.1 7.3,-2.1zm3.9,-10.5q0,-3.2 2.3,-5.3q2.2,-2.1 6,-2.1q3.6,0 5.9,2.1q2.3,2.1 2.3,5.3q0,3.1 -2.3,5.1q-2.3,2.1 -5.9,2.1q-3.8,0 -6,-2.1q-2.3,-2 -2.3,-5.1zm15.3,10.9l0,40.4l-14.2,0l0,-40.4zm33.9,-0.5q4.9,0 8.8,2.5q3.9,2.5 6.2,7.2q2.2,4.7 2.2,11q0,6.2 -2.2,10.9q-2.3,4.8 -6.2,7.3q-3.9,2.5 -8.8,2.5q-4.1,0 -7.1,-1.7q-2.9,-1.6 -4.7,-4.4l0,24.9l-14.1,0l0,-59.7l14.1,0l0,5.6q1.7,-2.8 4.7,-4.4q3,-1.7 7.1,-1.7zm-4.4,12.3q-3.1,0 -5.2,2.2q-2.2,2.3 -2.2,6.2q0,3.9 2.2,6.2q2.1,2.2 5.2,2.2q3.1,0 5.2,-2.3q2.1,-2.2 2.1,-6.1q0,-4 -2.1,-6.2q-2.1,-2.2 -5.2,-2.2zm51.3,16.6l0,12l-6.1,0q-15.5,0 -15.5,-15.3l0,-13.4l-5,0l0,-11.7l5,0l0,-9.8l14.2,0l0,9.8l7.3,0l0,11.7l-7.3,0l0,13.6q0,1.6 0.7,2.4q0.8,0.7 2.6,0.7zm27.6,-5.1l-7,0l0,17.1l-14.1,0l0,-50.8l21.1,0q6.1,0 10.4,2.2q4.3,2.2 6.4,6q2.2,3.8 2.2,8.8q0,4.6 -2.1,8.3q-2.2,3.8 -6.4,6.1q-4.3,2.3 -10.5,2.3zm4.6,-16.7q0,-5.6 -6,-5.6l-5.6,0l0,11l5.6,0q6,0 6,-5.4zm17.8,13.6q0,-6.3 2.7,-11q2.8,-4.7 7.6,-7.2q4.8,-2.5 10.8,-2.5q6.1,0 10.9,2.5q4.8,2.5 7.5,7.2q2.8,4.7 2.8,11q0,6.2 -2.8,10.9q-2.7,4.8 -7.6,7.3q-4.8,2.5 -10.8,2.5q-6.1,0 -10.9,-2.5q-4.8,-2.5 -7.5,-7.2q-2.7,-4.7 -2.7,-11zm28,0q0,-4.1 -2,-6.3q-2,-2.2 -4.9,-2.2q-2.8,0 -4.8,2.2q-1.9,2.2 -1.9,6.3q0,4.1 1.8,6.3q1.9,2.2 4.9,2.2q2.9,0 4.9,-2.2q2,-2.2 2,-6.3zm46,-20.7q4.8,0 8.7,2.5q4,2.5 6.2,7.2q2.3,4.7 2.3,11q0,6.2 -2.3,10.9q-2.2,4.8 -6.2,7.3q-3.9,2.5 -8.7,2.5q-4.1,0 -7.1,-1.6q-3.1,-1.6 -4.7,-4.5l0,5.6l-14.1,0l0,-53.3l14.1,0l0,18.5q1.6,-2.9 4.7,-4.5q3,-1.6 7.1,-1.6zm-4.5,12.3q-3.1,0 -5.2,2.2q-2.1,2.3 -2.1,6.2q0,3.9 2.1,6.2q2.1,2.2 5.2,2.2q3.1,0 5.2,-2.3q2.2,-2.2 2.2,-6.1q0,-4 -2.2,-6.2q-2.1,-2.2 -5.2,-2.2zm41.6,-24.7l0,53.3l-14.1,0l0,-53.3zm23,12.4q4.2,0 7.2,1.7q3,1.6 4.7,4.4l0,-5.6l14.1,0l0,40.4l-14.1,0l0,-5.6q-1.7,2.8 -4.7,4.4q-3.1,1.7 -7.2,1.7q-4.8,0 -8.7,-2.5q-4,-2.5 -6.2,-7.3q-2.3,-4.7 -2.3,-10.9q0,-6.3 2.3,-11q2.2,-4.7 6.2,-7.2q3.9,-2.5 8.7,-2.5zm4.5,12.3q-3.1,0 -5.2,2.2q-2.1,2.2 -2.1,6.2q0,3.9 2.1,6.1q2.1,2.3 5.2,2.3q3.1,0 5.3,-2.2q2.1,-2.3 2.1,-6.2q0,-3.9 -2.1,-6.2q-2.2,-2.2 -5.3,-2.2zm56.7,-12.2l0,15.1l-3.9,0q-4.7,0 -6.9,1.8q-2.2,1.8 -2.2,6.3l0,17.6l-14.1,0l0,-40.4l14.1,0l0,7.1q2.4,-3.4 5.7,-5.4q3.4,-2.1 7.3,-2.1z"/><path fill="#334155" d="M354.6,206.3l-7.5,0l-1.3,3.7l-3.1,0l6.4,-18.1l3.5,0l6.4,18.1l-3.1,0zm-0.8,-2.4l-2.9,-8.4l-3,8.4zm13.9,-8.5q1.4,0 2.7,0.7q1.4,0.6 2.2,1.6l0,-6.9l3,0l0,19.2l-3,0l0,-2.2q-0.7,1.1 -2,1.8q-1.3,0.6 -3,0.6q-1.8,0 -3.4,-0.9q-1.5,-1 -2.4,-2.7q-0.9,-1.7 -0.9,-3.8q0,-2.2 0.9,-3.9q0.9,-1.6 2.4,-2.5q1.6,-1 3.5,-1zm0.5,2.6q-1.1,0 -2.1,0.6q-1,0.5 -1.6,1.6q-0.6,1.1 -0.6,2.6q0,1.5 0.6,2.6q0.6,1.1 1.6,1.7q1,0.6 2.1,0.6q1.2,0 2.2,-0.6q1,-0.6 1.6,-1.7q0.6,-1.1 0.6,-2.6q0,-1.5 -0.6,-2.6q-0.6,-1 -1.6,-1.6q-1,-0.6 -2.2,-0.6zm10.3,4.8q0,-2.2 1,-3.9q0.9,-1.6 2.6,-2.6q1.7,-0.9 3.7,-0.9q2.1,0 3.7,0.9q1.7,1 2.7,2.6q0.9,1.7 0.9,3.9q0,2.2 -1,3.9q-0.9,1.7 -2.6,2.6q-1.8,0.9 -3.8,0.9q-2,0 -3.7,-0.9q-1.6,-0.9 -2.5,-2.6q-1,-1.7 -1,-3.9zm11.6,0q0,-1.5 -0.6,-2.6q-0.6,-1.1 -1.6,-1.6q-1,-0.6 -2.1,-0.6q-1.2,0 -2.1,0.6q-1,0.5 -1.6,1.6q-0.6,1.1 -0.6,2.6q0,2.3 1.2,3.6q1.2,1.3 3,1.3q1.1,0 2.1,-0.6q1,-0.5 1.7,-1.6q0.6,-1.1 0.6,-2.7zm13.9,-7.4q1.9,0 3.4,1q1.6,0.9 2.5,2.5q0.9,1.7 0.9,3.9q0,2.1 -0.9,3.8q-0.9,1.7 -2.5,2.7q-1.5,0.9 -3.4,0.9q-1.6,0 -2.9,-0.6q-1.3,-0.7 -2.1,-1.7l0,8.9l-2.9,0l0,-21.1l2.9,0l0,2.1q0.8,-1 2.1,-1.7q1.3,-0.7 2.9,-0.7zm-0.6,2.6q-1.1,0 -2.1,0.6q-1,0.6 -1.7,1.6q-0.6,1.1 -0.6,2.6q0,1.5 0.6,2.6q0.7,1.1 1.7,1.7q1,0.6 2.1,0.6q1.1,0 2.1,-0.6q1,-0.6 1.6,-1.7q0.6,-1.1 0.6,-2.6q0,-1.5 -0.6,-2.6q-0.6,-1.1 -1.6,-1.6q-1,-0.6 -2.1,-0.6zm13.8,0.1l0,7.9q0,0.8 0.3,1.2q0.4,0.3 1.3,0.3l1.8,0l0,2.5l-2.3,0q-2,0 -3.1,-0.9q-1,-1 -1,-3.1l0,-7.9l-1.7,0l0,-2.4l1.7,0l0,-3.6l3,0l0,3.6l3.4,0l0,2.4zm26,5.8l-11,0q0.1,1.8 1.3,2.8q1.1,1 2.8,1q2.4,0 3.4,-2l3.2,0q-0.7,2 -2.4,3.3q-1.7,1.2 -4.2,1.2q-2.1,0 -3.7,-0.9q-1.6,-0.9 -2.5,-2.6q-1,-1.7 -1,-3.9q0,-2.2 0.9,-3.9q0.9,-1.6 2.6,-2.6q1.6,-0.9 3.7,-0.9q2,0 3.6,0.9q1.6,0.9 2.5,2.5q0.9,1.6 0.9,3.7q0,0.8 -0.1,1.4zm-3,-2.3q-0.1,-1.7 -1.2,-2.7q-1.1,-1 -2.8,-1q-1.6,0 -2.7,1q-1.1,1 -1.3,2.7zm11.5,5.7l4.1,-11.6l3.1,0l-5.4,14.3l-3.6,0l-5.4,-14.3l3.2,0zm22.5,-3.4l-11,0q0.2,1.8 1.3,2.8q1.1,1 2.8,1q2.4,0 3.4,-2l3.2,0q-0.7,2 -2.4,3.3q-1.7,1.2 -4.2,1.2q-2,0 -3.7,-0.9q-1.6,-0.9 -2.5,-2.6q-0.9,-1.7 -0.9,-3.9q0,-2.2 0.9,-3.9q0.9,-1.6 2.5,-2.6q1.6,-0.9 3.7,-0.9q2,0 3.6,0.9q1.6,0.9 2.5,2.5q0.9,1.6 0.9,3.7q0,0.8 -0.1,1.4zm-3,-2.3q0,-1.7 -1.2,-2.7q-1.1,-1 -2.8,-1q-1.6,0 -2.6,1q-1.1,1 -1.3,2.7zm13.2,-6.2l0,3.1l-0.7,0q-1.8,0 -2.7,0.9q-0.8,0.9 -0.8,3.1l0,7.5l-3,0l0,-14.3l3,0l0,2.1q0.6,-1.1 1.7,-1.7q1.1,-0.7 2.5,-0.7zm15.7,0.3l-8.8,21l-3.1,0l2.9,-6.9l-5.6,-14.1l3.3,0l4,10.9l4.2,-10.9zm14.8,-0.3q1.4,0 2.7,0.7q1.4,0.6 2.2,1.6l0,-6.9l3,0l0,19.2l-3,0l0,-2.2q-0.7,1.1 -2,1.8q-1.3,0.6 -3,0.6q-1.8,0 -3.4,-0.9q-1.5,-1 -2.4,-2.7q-0.9,-1.7 -0.9,-3.8q0,-2.2 0.9,-3.9q0.9,-1.6 2.4,-2.5q1.6,-1 3.5,-1zm0.6,2.6q-1.2,0 -2.2,0.6q-1,0.5 -1.6,1.6q-0.6,1.1 -0.6,2.6q0,1.5 0.6,2.6q0.6,1.1 1.6,1.7q1,0.6 2.2,0.6q1.1,0 2.1,-0.6q1,-0.6 1.6,-1.7q0.6,-1.1 0.6,-2.6q0,-1.5 -0.6,-2.6q-0.6,-1 -1.6,-1.6q-1,-0.6 -2.1,-0.6zm24.2,5.9l-10.9,0q0.1,1.8 1.2,2.8q1.2,1 2.9,1q2.3,0 3.3,-2l3.2,0q-0.6,2 -2.3,3.3q-1.7,1.2 -4.2,1.2q-2.1,0 -3.7,-0.9q-1.7,-0.9 -2.6,-2.6q-0.9,-1.7 -0.9,-3.9q0,-2.2 0.9,-3.9q0.9,-1.6 2.5,-2.6q1.6,-0.9 3.8,-0.9q2,0 3.6,0.9q1.6,0.9 2.4,2.5q0.9,1.6 0.9,3.7q0,0.8 -0.1,1.4zm-3,-2.3q0,-1.7 -1.1,-2.7q-1.2,-1 -2.9,-1q-1.5,0 -2.6,1q-1.1,1 -1.3,2.7zm11.6,5.7l4,-11.6l3.2,0l-5.5,14.3l-3.5,0l-5.5,-14.3l3.2,0zm9,-15.4q0,-0.8 0.6,-1.4q0.5,-0.5 1.3,-0.5q0.8,0 1.3,0.5q0.6,0.6 0.6,1.4q0,0.8 -0.6,1.3q-0.5,0.6 -1.3,0.6q-0.8,0 -1.3,-0.6q-0.6,-0.5 -0.6,-1.3zm3.4,3.8l0,14.3l-3,0l0,-14.3zm9.9,-0.3q2.6,0 4.3,1.3q1.7,1.2 2.3,3.5l-3.2,0q-0.4,-1.1 -1.2,-1.7q-0.9,-0.6 -2.2,-0.6q-1.8,0 -2.9,1.3q-1.1,1.3 -1.1,3.6q0,2.3 1.1,3.6q1.1,1.3 2.9,1.3q2.6,0 3.4,-2.2l3.2,0q-0.6,2.2 -2.3,3.4q-1.7,1.3 -4.3,1.3q-2,0 -3.6,-0.9q-1.6,-0.9 -2.5,-2.6q-0.9,-1.7 -0.9,-3.9q0,-2.2 0.9,-3.9q0.9,-1.6 2.5,-2.6q1.6,-0.9 3.6,-0.9zm22.6,8.5l-10.9,0q0.1,1.8 1.2,2.8q1.2,1 2.8,1q2.4,0 3.4,-2l3.2,0q-0.6,2 -2.3,3.3q-1.7,1.2 -4.3,1.2q-2,0 -3.6,-0.9q-1.7,-0.9 -2.6,-2.6q-0.9,-1.7 -0.9,-3.9q0,-2.2 0.9,-3.9q0.9,-1.6 2.5,-2.6q1.6,-0.9 3.7,-0.9q2.1,0 3.7,0.9q1.5,0.9 2.4,2.5q0.9,1.6 0.9,3.7q0,0.8 -0.1,1.4zm-3,-2.3q0,-1.7 -1.2,-2.7q-1.1,-1 -2.8,-1q-1.5,0 -2.6,1q-1.1,1 -1.3,2.7zm11.8,1.2q0,-2.2 1,-3.9q0.9,-1.6 2.6,-2.6q1.7,-0.9 3.7,-0.9q2.1,0 3.7,0.9q1.7,1 2.7,2.6q0.9,1.7 0.9,3.9q0,2.2 -1,3.9q-0.9,1.7 -2.7,2.6q-1.7,0.9 -3.7,0.9q-2,0 -3.7,-0.9q-1.6,-0.9 -2.5,-2.6q-1,-1.7 -1,-3.9zm11.6,0q0,-1.5 -0.6,-2.6q-0.6,-1.1 -1.6,-1.6q-1,-0.6 -2.1,-0.6q-1.2,0 -2.2,0.6q-0.9,0.5 -1.5,1.6q-0.6,1.1 -0.6,2.6q0,2.3 1.2,3.6q1.2,1.3 3,1.3q1.1,0 2.1,-0.6q1,-0.5 1.7,-1.6q0.6,-1.1 0.6,-2.7zm19.1,-1.2l0,8.4l-3,0l0,-8q0,-1.9 -0.9,-3q-1,-1 -2.7,-1q-1.6,0 -2.6,1q-1,1.1 -1,3l0,8l-2.9,0l0,-14.3l2.9,0l0,1.6q0.8,-0.9 1.9,-1.4q1.1,-0.5 2.4,-0.5q1.7,0 3,0.7q1.4,0.7 2.1,2.1q0.8,1.4 0.8,3.4zm14,-3.5l0,7.9q0,0.8 0.3,1.2q0.4,0.3 1.3,0.3l1.8,0l0,2.5l-2.3,0q-2,0 -3.1,-0.9q-1,-1 -1,-3.1l0,-7.9l-1.7,0l0,-2.4l1.7,0l0,-3.6l3,0l0,3.6l3.4,0l0,2.4zm19.3,3.5l0,8.4l-3,0l0,-8q0,-1.9 -0.9,-3q-1,-1 -2.7,-1q-1.6,0 -2.6,1q-1,1.1 -1,3l0,8l-2.9,0l0,-19.2l2.9,0l0,6.5q0.8,-0.9 1.9,-1.4q1.2,-0.5 2.6,-0.5q1.6,0 2.9,0.7q1.3,0.7 2,2.1q0.8,1.4 0.8,3.4zm16.8,2.3l-11,0q0.2,1.8 1.3,2.8q1.1,1 2.8,1q2.4,0 3.4,-2l3.2,0q-0.7,2 -2.4,3.3q-1.7,1.2 -4.2,1.2q-2,0 -3.7,-0.9q-1.6,-0.9 -2.5,-2.6q-0.9,-1.7 -0.9,-3.9q0,-2.2 0.9,-3.9q0.9,-1.6 2.5,-2.6q1.6,-0.9 3.7,-0.9q2,0 3.6,0.9q1.6,0.9 2.5,2.5q0.9,1.6 0.9,3.7q0,0.8 -0.1,1.4zm-3,-2.3q0,-1.7 -1.2,-2.7q-1.1,-1 -2.8,-1q-1.6,0 -2.6,1q-1.1,1 -1.3,2.7zm25.9,0l0,8.4l-3,0l0,-8q0,-1.9 -0.9,-3q-1,-1 -2.7,-1q-1.6,0 -2.6,1q-1,1.1 -1,3l0,8l-3,0l0,-14.3l3,0l0,1.6q0.7,-0.9 1.9,-1.4q1.1,-0.5 2.4,-0.5q1.7,0 3,0.7q1.3,0.7 2.1,2.1q0.8,1.4 0.8,3.4zm16.7,2.3l-10.9,0q0.1,1.8 1.3,2.8q1.1,1 2.8,1q2.4,0 3.4,-2l3.2,0q-0.7,2 -2.4,3.3q-1.7,1.2 -4.2,1.2q-2.1,0 -3.7,-0.9q-1.6,-0.9 -2.5,-2.6q-1,-1.7 -1,-3.9q0,-2.2 0.9,-3.9q0.9,-1.6 2.6,-2.6q1.6,-0.9 3.7,-0.9q2,0 3.6,0.9q1.6,0.9 2.5,2.5q0.9,1.6 0.9,3.7q0,0.8 -0.2,1.4zm-2.9,-2.3q-0.1,-1.7 -1.2,-2.7q-1.2,-1 -2.8,-1q-1.6,0 -2.7,1q-1.1,1 -1.3,2.7zm9.4,-3.5l0,7.9q0,0.8 0.4,1.2q0.4,0.3 1.3,0.3l1.8,0l0,2.5l-2.3,0q-2,0 -3.1,-0.9q-1.1,-1 -1.1,-3.1l0,-7.9l-1.7,0l0,-2.4l1.7,0l0,-3.6l3,0l0,3.6l3.5,0l0,2.4zm25.5,-2.4l-4.5,14.3l-3.1,0l-2.9,-10.6l-2.9,10.6l-3.1,0l-4.5,-14.3l3.1,0l3,11.5l3,-11.5l3.1,0l2.9,11.4l3,-11.4zm1.2,7.1q0,-2.2 1,-3.9q0.9,-1.6 2.6,-2.6q1.7,-0.9 3.7,-0.9q2.1,0 3.7,0.9q1.7,1 2.7,2.6q0.9,1.7 0.9,3.9q0,2.2 -1,3.9q-0.9,1.7 -2.6,2.6q-1.7,0.9 -3.8,0.9q-2,0 -3.7,-0.9q-1.6,-0.9 -2.5,-2.6q-1,-1.7 -1,-3.9zm11.6,0q0,-1.5 -0.6,-2.6q-0.6,-1.1 -1.6,-1.6q-1,-0.6 -2.1,-0.6q-1.2,0 -2.1,0.6q-1,0.5 -1.6,1.6q-0.6,1.1 -0.6,2.6q0,2.3 1.2,3.6q1.2,1.3 3,1.3q1.1,0 2.1,-0.6q1,-0.5 1.7,-1.6q0.6,-1.1 0.6,-2.7zm13.2,-7.4l0,3.1l-0.7,0q-1.8,0 -2.7,0.9q-0.9,0.9 -0.9,3.1l0,7.5l-2.9,0l0,-14.3l2.9,0l0,2.1q0.7,-1.1 1.8,-1.7q1,-0.7 2.5,-0.7zm8.4,7.4l6.6,7.2l-4,0l-5.3,-6.2l0,6.2l-2.9,0l0,-19.2l2.9,0l0,11.1l5.2,-6.2l4.1,0zm12,3.6l-3.1,7.2l-2,0l1.9,-7.2zm9,-14.5q0,-0.8 0.5,-1.4q0.6,-0.5 1.4,-0.5q0.8,0 1.3,0.5q0.6,0.6 0.6,1.4q0,0.8 -0.6,1.3q-0.5,0.6 -1.3,0.6q-0.8,0 -1.4,-0.6q-0.5,-0.5 -0.5,-1.3zm3.3,3.8l0,14.3l-2.9,0l0,-14.3zm17,5.9l0,8.4l-2.9,0l0,-8q0,-1.9 -1,-3q-0.9,-1 -2.6,-1q-1.7,0 -2.6,1q-1,1.1 -1,3l0,8l-3,0l0,-14.3l3,0l0,1.6q0.7,-0.9 1.9,-1.4q1.1,-0.5 2.4,-0.5q1.7,0 3,0.7q1.3,0.7 2.1,2.1q0.7,1.4 0.7,3.4zm18.5,-6.2q1.9,0 3.4,1q1.6,0.9 2.5,2.5q0.9,1.7 0.9,3.9q0,2.1 -0.9,3.8q-0.9,1.7 -2.5,2.7q-1.5,0.9 -3.4,0.9q-1.6,0 -2.9,-0.6q-1.3,-0.7 -2.1,-1.7l0,8.9l-2.9,0l0,-21.1l2.9,0l0,2.1q0.8,-1 2.1,-1.7q1.3,-0.7 2.9,-0.7zm-0.6,2.6q-1.1,0 -2.1,0.6q-1,0.6 -1.7,1.6q-0.6,1.1 -0.6,2.6q0,1.5 0.6,2.6q0.7,1.1 1.7,1.7q1,0.6 2.1,0.6q1.1,0 2.1,-0.6q1,-0.6 1.6,-1.7q0.6,-1.1 0.6,-2.6q0,-1.5 -0.6,-2.6q-0.6,-1.1 -1.6,-1.6q-1,-0.6 -2.1,-0.6zm16.1,-2.6q1.7,0 2.9,0.7q1.3,0.7 2,1.7l0,-2.1l3,0l0,14.3l-3,0l0,-2.1q-0.7,1 -2,1.7q-1.3,0.6 -3,0.6q-1.8,0 -3.4,-0.9q-1.5,-1 -2.4,-2.7q-0.9,-1.7 -0.9,-3.8q0,-2.2 0.9,-3.9q0.9,-1.6 2.4,-2.5q1.6,-1 3.5,-1zm0.6,2.6q-1.2,0 -2.1,0.6q-1,0.5 -1.6,1.6q-0.6,1.1 -0.6,2.6q0,1.5 0.6,2.6q0.6,1.1 1.6,1.7q1,0.6 2.1,0.6q1.1,0 2.1,-0.6q1,-0.6 1.6,-1.7q0.6,-1.1 0.6,-2.6q0,-1.5 -0.6,-2.6q-0.6,-1 -1.6,-1.6q-1,-0.6 -2.1,-0.6zm18.5,-2.6l0,3.1l-0.8,0q-1.7,0 -2.6,0.9q-0.9,0.9 -0.9,3.1l0,7.5l-3,0l0,-14.3l3,0l0,2.1q0.6,-1.1 1.7,-1.7q1.1,-0.7 2.6,-0.7zm8.5,0q1.7,0 2.9,0.7q1.3,0.7 2,1.7l0,-2.1l3,0l0,14.3l-3,0l0,-2.1q-0.7,1 -2,1.7q-1.3,0.6 -3,0.6q-1.8,0 -3.4,-0.9q-1.5,-1 -2.4,-2.7q-0.9,-1.7 -0.9,-3.8q0,-2.2 0.9,-3.9q0.9,-1.6 2.5,-2.5q1.5,-1 3.4,-1zm0.6,2.6q-1.1,0 -2.1,0.6q-1,0.5 -1.6,1.6q-0.6,1.1 -0.6,2.6q0,1.5 0.6,2.6q0.6,1.1 1.6,1.7q1,0.6 2.1,0.6q1.1,0 2.1,-0.6q1,-0.6 1.6,-1.7q0.6,-1.1 0.6,-2.6q0,-1.5 -0.6,-2.6q-0.6,-1 -1.6,-1.6q-1,-0.6 -2.1,-0.6zm14.2,-7.2l0,19.2l-3,0l0,-19.2zm6.9,0l0,19.2l-3,0l0,-19.2zm16.9,13.1l-11,0q0.2,1.8 1.3,2.8q1.2,1 2.8,1q2.4,0 3.4,-2l3.2,0q-0.6,2 -2.3,3.3q-1.8,1.2 -4.3,1.2q-2,0 -3.7,-0.9q-1.6,-0.9 -2.5,-2.6q-0.9,-1.7 -0.9,-3.9q0,-2.2 0.9,-3.9q0.9,-1.6 2.5,-2.6q1.6,-0.9 3.7,-0.9q2.1,0 3.6,0.9q1.6,0.9 2.5,2.5q0.9,1.6 0.9,3.7q0,0.8 -0.1,1.4zm-3,-2.3q0,-1.7 -1.2,-2.7q-1.1,-1 -2.8,-1q-1.5,0 -2.6,1q-1.1,1 -1.3,2.7zm9,-10.8l0,19.2l-3,0l0,-19.2z"/></g></svg>
