<svg xmlns="http://www.w3.org/2000/svg" viewBox="0 0 1280 320" width="1280" height="320" role="img" aria-label="ScriptPoblar"><defs><clipPath id="c"><rect width="1280" height="320" rx="18"/></clipPath></defs><g clip-path="url(#c)"><rect width="1280" height="320" fill="#0f172a"/><g transform="translate(0,-24)"><path fill="#4ade80" d="M89.3,175.5l0,-11.5l32.7,-8.7l0,-1.8l-32.7,-8.7l0,-11.5l40.1,11.1l0,20z"/><path fill="#f8fafc" d="M190.3,189.3q-8.8,0 -14.8,-3.2q-6,-3.2 -9,-8.8q-3,-5.5 -3,-12.5l0,-2.9l12.6,0l0,2.3q0,6 3.6,9.6q3.5,3.6 10.8,3.6q5.8,0 8.6,-2.5q2.8,-2.5 2.8,-5.9q0,-2.2 -1.1,-4.1q-1.1,-1.9 -3.8,-3.3q-2.8,-1.3 -8,-2.2q-6.7,-1.2 -12,-3.4q-5.2,-2.2 -8.2,-6.2q-3,-3.9 -3,-10.6l0,-0.5q0,-5.5 2.8,-9.9q2.9,-4.4 8.2,-6.8q5.2,-2.5 12.2,-2.5q8,0 13.4,2.8q5.5,2.9 8.3,7.7q2.9,4.7 2.9,10.2l0,3.4l-12.7,0l0,-2.3q0,-4 -3.1,-7q-3.1,-2.9 -8.8,-2.9q-4.7,0 -7.5,1.9q-2.9,2 -2.9,5.4q0,3.4 3,5.5q3.1,2.1 11.4,3.7q10.6,1.8 16.2,6.4q5.5,4.5 5.5,13.3l0,1.2q0,9.3 -6.5,14.9q-6.5,5.6 -17.9,5.6zm58.4,0q-7,0 -12.7,-2.8q-5.6,-2.8 -8.9,-8.2q-3.4,-5.5 -3.4,-13.1l0,-1.2q0,-7.7 3.4,-13.3q3.4,-5.6 9,-8.6q5.7,-3.1 12.6,-3.1q10,0 16.2,5.2q6.3,5.2 7.8,13.7l-11.9,3q-0.6,-4.2 -3.6,-7.3q-3.1,-3 -8.7,-3q-5.2,0 -8.9,3.6q-3.8,3.7 -3.8,10.1l0,0.6q0,6.4 3.8,9.7q3.7,3.2 8.9,3.2q5.6,0 8.5,-2.8q2.9,-2.7 3.8,-7.4l11.9,2.9q-1.5,8.5 -7.7,13.7q-6.1,5.1 -16.3,5.1zm32.8,-1.3l0,-11.5l9.8,0l0,-24.6l-8.6,0l0,-11.5l20.1,0l0,6.9l1.8,0q1.3,-3.9 4.6,-6.1q3.2,-2.2 7.7,-2.2q7.1,0 11.4,4.5q4.3,4.5 4.3,13.6l0,2.1l-12.5,1.2l0,-1.4q0,-3.9 -2,-6.3q-2,-2.3 -6,-2.3q-4.1,0 -6.4,2.8q-2.3,2.7 -2.3,7.9l0,15.4l11,0l0,11.5zm85.2,-52.6q-3.8,0 -6.4,-2.6q-2.7,-2.7 -2.7,-6.5q0,-3.9 2.7,-6.5q2.6,-2.6 6.4,-2.6q3.7,0 6.4,2.6q2.7,2.6 2.7,6.5q0,3.8 -2.7,6.5q-2.7,2.6 -6.4,2.6zm-22.1,52.6l0,-11.5l16.1,0l0,-24.6l-14.9,0l0,-11.5l27,0l0,36.1l13.9,0l0,11.5zm55.4,19.2l0,-66.8l12.1,0l0,6.9l1.7,0q1.9,-3.9 5.6,-6.1q3.7,-2.2 9.3,-2.2q5.7,0 10.4,2.9q4.7,2.9 7.6,8.3q2.8,5.4 2.8,13.1l0,1.8q0,7.7 -2.7,13.2q-2.8,5.4 -7.5,8.2q-4.7,2.8 -10.6,2.8q-6.4,0 -9.8,-2.5q-3.4,-2.5 -5.1,-5.7l-1.7,0l0,26.1zm24.8,-29.4q5.6,0 9.1,-3.5q3.5,-3.6 3.5,-9.5l0,-1.2q0,-5.9 -3.5,-9.5q-3.5,-3.5 -9.1,-3.5q-5.6,0 -9.2,3.6q-3.5,3.6 -3.5,9.4l0,1.2q0,5.8 3.5,9.4q3.6,3.6 9.2,3.6zm56.6,10.2q-3.3,0 -5.3,-2.1q-2.1,-2.1 -2.1,-5.4l0,-28.6l-14.1,0l0,-11.5l14.1,0l0,-19.6l12.1,0l0,19.6l17.2,0l0,11.5l-17.2,0l0,21.7q0,2.9 2.6,2.9l12.9,0l0,11.5zm38,0l0,-67.2l26.3,0q6.9,0 11.5,2.8q4.6,2.9 6.8,7.3q2.3,4.5 2.3,9.4l0,2.3q0,5 -2.3,9.6q-2.2,4.6 -6.8,7.5q-4.6,3 -11.5,3l-13.6,0l0,25.3zm12.7,-37.4l12.4,0q4.2,0 6.7,-2.3q2.4,-2.3 2.4,-6l0,-1.1q0,-3.7 -2.4,-6q-2.5,-2.3 -6.7,-2.3l-12.4,0zm68.5,38.7q-6.5,0 -12.2,-2.8q-5.6,-2.9 -9.1,-8.4q-3.4,-5.5 -3.4,-13.3l0,-1.2q0,-7.8 3.4,-13.3q3.5,-5.5 9.1,-8.4q5.7,-2.9 12.2,-2.9q6.6,0 12.2,2.9q5.7,2.9 9.2,8.4q3.4,5.5 3.4,13.3l0,1.2q0,7.8 -3.4,13.3q-3.5,5.5 -9.2,8.4q-5.6,2.8 -12.2,2.8zm0,-11.5q5.3,0 9,-3.4q3.7,-3.4 3.7,-9.2l0,-2q0,-5.9 -3.7,-9.3q-3.7,-3.3 -9,-3.3q-5.2,0 -8.9,3.3q-3.7,3.4 -3.7,9.3l0,2q0,5.8 3.7,9.2q3.7,3.4 8.9,3.4zm63.6,11.5q-6.4,0 -9.8,-2.5q-3.5,-2.5 -5.1,-5.7l-1.7,0l0,6.9l-12.1,0l0,-67.2l12.1,0l0,26.5l1.7,0q1.9,-3.9 5.6,-6.1q3.7,-2.2 9.3,-2.2q5.7,0 10.4,2.9q4.7,2.9 7.5,8.3q2.9,5.4 2.9,13.1l0,1.8q0,7.7 -2.8,13.2q-2.7,5.4 -7.4,8.2q-4.8,2.8 -10.6,2.8zm-3.9,-11.5q5.6,0 9.1,-3.5q3.5,-3.6 3.5,-9.5l0,-1.2q0,-5.9 -3.5,-9.5q-3.5,-3.5 -9.1,-3.5q-5.6,0 -9.2,3.6q-3.5,3.6 -3.5,9.4l0,1.2q0,5.8 3.5,9.4q3.6,3.6 9.2,3.6zm35.7,10.2l0,-11.5l16.7,0l0,-44.2l-16.2,0l0,-11.5l28.3,0l0,55.7l15.5,0l0,11.5zm76.4,1.3q-5.7,0 -10.5,-2.8q-4.8,-2.9 -7.7,-8.4q-2.8,-5.5 -2.8,-13.1l0,-1.6q0,-7.6 2.7,-13q2.8,-5.5 7.5,-8.4q4.6,-3 10.2,-3q5.1,0 8.2,1.8q3.1,1.7 5,5.3l1.7,0l0,-5.7l12.1,0l0,33.2q0,2.9 2.6,2.9l1.8,0l0,11.5l-8.3,0q-3.2,0 -5.3,-2q-2,-1.9 -2,-4.9l-1.8,0q-1.8,4.4 -5.3,6.3q-3.5,1.9 -8.1,1.9zm2.7,-11.5q5.3,0 8.4,-3.5q3.2,-3.5 3.2,-9.5l0,-1.2q0,-6 -3.2,-9.5q-3.1,-3.5 -8.4,-3.5q-5.3,0 -8.5,3.5q-3.1,3.5 -3.1,9.5l0,1.2q0,6 3.1,9.5q3.2,3.5 8.5,3.5zm35.2,10.2l0,-11.5l9.8,0l0,-24.6l-8.6,0l0,-11.5l20.1,0l0,6.9l1.7,0q1.4,-3.9 4.7,-6.1q3.2,-2.2 7.6,-2.2q7.1,0 11.5,4.5q4.3,4.5 4.3,13.6l0,2.1l-12.5,1.2l0,-1.4q0,-3.9 -2,-6.3q-2,-2.3 -6.1,-2.3q-4,0 -6.3,2.8q-2.3,2.7 -2.3,7.9l0,15.4l10.9,0l0,11.5z"/><rect x="890" y="118" width="46" height="78" fill="#4ade80"/><path fill="#7dd3fc" d="M88.9,245.2l0,-3.2l-3,0l0,-2l3,0l0,-2.9l-3,0l0,-2l3,0l0,-3.2l1.9,0l0,3.2l2.9,0l0,-3.2l2,0l0,3.2l2.9,0l0,2l-2.9,0l0,2.9l2.9,0l0,2l-2.9,0l0,3.2l-2,0l0,-3.2l-2.9,0l0,3.2zm1.9,-5.2l2.9,0l0,-2.9l-2.9,0zm33.8,8.4q-1.8,0 -3.2,-0.8q-1.4,-0.8 -2.2,-2.3q-0.9,-1.6 -0.9,-3.8l0,-0.4q0,-2.2 0.9,-3.7q0.8,-1.6 2.2,-2.4q1.4,-0.8 3.1,-0.8q1.4,0 2.5,0.6q1.1,0.6 1.8,1.9l0.3,0l0,-2.1l2.1,0l0,10.6q0,0.9 0.8,0.9l0.6,0l0,1.9l-1.4,0q-0.8,0 -1.5,-0.5q-0.6,-0.6 -0.6,-1.8l-0.3,0q-0.7,1.4 -1.8,2q-1.2,0.7 -2.4,0.7zm0.2,-2q1.9,0 3.1,-1.4q1.2,-1.3 1.2,-3.5l0,-0.4q0,-1.4 -0.5,-2.5q-0.6,-1.1 -1.6,-1.7q-1,-0.7 -2.2,-0.7q-1.2,0 -2.2,0.6q-1,0.6 -1.6,1.7q-0.5,1.1 -0.5,2.6l0,0.4q0,2.3 1.2,3.6q1.2,1.3 3.1,1.3zm16.8,2q-1.8,0 -3.2,-0.8q-1.5,-0.8 -2.4,-2.4q-0.8,-1.5 -0.8,-3.7l0,-0.4q0,-2.2 0.8,-3.7q0.9,-1.6 2.4,-2.4q1.4,-0.8 3.1,-0.8q1.4,0 2.6,0.6q1.2,0.6 1.9,1.9l0.3,0l0,-7.6l2.1,0l0,18.9l-2.1,0l0,-2.1l-0.3,0q-0.7,1.3 -1.9,1.9q-1.3,0.6 -2.5,0.6zm0.2,-2q1.3,0 2.3,-0.6q1,-0.6 1.6,-1.7q0.6,-1.1 0.6,-2.6l0,-0.4q0,-1.4 -0.6,-2.5q-0.6,-1.1 -1.6,-1.7q-1.1,-0.7 -2.3,-0.7q-1.3,0 -2.3,0.6q-1,0.6 -1.6,1.7q-0.6,1.1 -0.6,2.6l0,0.4q0,1.5 0.6,2.6q0.6,1.1 1.6,1.7q1,0.6 2.3,0.6zm16.6,2q-1.8,0 -3.3,-0.8q-1.6,-0.8 -2.5,-2.4q-1,-1.5 -1,-3.7l0,-0.4q0,-2.1 1,-3.7q0.9,-1.6 2.5,-2.4q1.5,-0.8 3.3,-0.8q1.7,0 3.3,0.8q1.5,0.8 2.4,2.4q1,1.6 1,3.7l0,0.4q0,2.2 -1,3.7q-0.9,1.6 -2.4,2.4q-1.6,0.8 -3.3,0.8zm0,-2q1.3,0 2.3,-0.6q1,-0.6 1.6,-1.7q0.6,-1.1 0.6,-2.6l0,-0.4q0,-1.4 -0.6,-2.5q-0.6,-1.1 -1.6,-1.8q-1.1,-0.6 -2.3,-0.6q-1.3,0 -2.4,0.6q-1,0.7 -1.6,1.8q-0.6,1.1 -0.6,2.5l0,0.4q0,1.5 0.6,2.6q0.6,1.1 1.6,1.7q1.1,0.6 2.4,0.6zm10.1,7l0,-18.8l2.1,0l0,2.1l0.3,0q0.7,-1.2 2,-1.8q1.2,-0.7 2.7,-0.7q1.6,0 3,0.8q1.4,0.8 2.3,2.3q0.8,1.6 0.8,3.7l0,0.6q0,2.2 -0.8,3.7q-0.9,1.5 -2.3,2.3q-1.4,0.8 -3.1,0.8q-1.3,0 -2.6,-0.6q-1.3,-0.6 -2,-1.9l-0.3,0l0,7.5zm6.6,-7q1.9,0 3.2,-1.3q1.3,-1.3 1.3,-3.5l0,-0.6q0,-1.4 -0.6,-2.5q-0.6,-1.1 -1.6,-1.7q-1.1,-0.6 -2.3,-0.6q-1.3,0 -2.3,0.7q-1,0.6 -1.6,1.7q-0.6,1.1 -0.6,2.5l0,0.4q0,1.5 0.6,2.6q0.6,1.1 1.6,1.7q1,0.6 2.3,0.6zm16.2,1.6q-0.9,0 -1.5,-0.6q-0.6,-0.6 -0.6,-1.5l0,-9.3l-4.2,0l0,-2l4.2,0l0,-5.5l2.2,0l0,5.5l5.1,0l0,2l-5.1,0l0,8.6q0,0.9 0.7,0.9l3.8,0l0,1.9zm33.2,0.4q-1.9,0 -3.4,-0.9q-1.5,-0.9 -2.3,-2.4q-0.8,-1.6 -0.8,-3.6l0,-0.7q0,-1.9 0.8,-3.4q0.9,-1.4 2.4,-2.3q1.5,-0.9 3.4,-0.9q1.6,0 2.8,0.6q1.2,0.6 2,1.5q0.8,1 1.1,2q0.4,1 0.4,1.9l0,1.8l-10.8,0q0.1,1.9 1.2,3.2q1.2,1.2 3.3,1.2q1.9,0 2.8,-0.8q1,-0.8 1.3,-2l2,0.6q-0.5,1.8 -2.1,3q-1.5,1.2 -4.1,1.2zm-4.4,-8.4l8.7,0q-0.1,-1.2 -0.7,-2q-0.6,-0.9 -1.5,-1.3q-1,-0.5 -2,-0.5q-1.8,0 -3,1.1q-1.3,1.1 -1.5,2.7zm18.8,8l-4.7,-13.4l2.5,0l4.1,12.4l0.3,0l4.1,-12.4l2.5,0l-4.7,13.4zm18.7,0.4q-2,0 -3.4,-0.9q-1.5,-0.9 -2.3,-2.4q-0.9,-1.6 -0.9,-3.6l0,-0.7q0,-1.9 0.9,-3.4q0.9,-1.4 2.3,-2.3q1.5,-0.9 3.4,-0.9q1.7,0 2.9,0.6q1.2,0.6 1.9,1.5q0.8,1 1.2,2q0.3,1 0.3,1.9l0,1.8l-10.8,0q0.1,1.9 1.3,3.2q1.2,1.2 3.2,1.2q1.9,0 2.9,-0.8q0.9,-0.8 1.3,-2l2,0.6q-0.6,1.8 -2.1,3q-1.6,1.2 -4.1,1.2zm-4.4,-8.4l8.6,0q0,-1.2 -0.6,-2q-0.6,-0.9 -1.6,-1.3q-0.9,-0.5 -2,-0.5q-1.8,0 -3,1.1q-1.2,1.1 -1.4,2.7zm13.8,8l0,-1.9l3.1,0l0,-9.5l-2.7,0l0,-2l4.8,0l0,1.8l0.3,0q0.6,-1.1 1.5,-1.6q1,-0.6 2.2,-0.6q2,0 3.2,1.4q1.3,1.3 1.3,3.8l-2.2,0.3q0,-1.8 -0.9,-2.6q-0.8,-0.9 -2.1,-0.9q-1.7,0 -2.5,1.2q-0.8,1.2 -0.8,3l0,5.7l3.4,0l0,1.9zm19.7,5.4l0,-1.9l6.9,0q0.8,0 0.8,-0.9l0,-5l-0.4,0q-0.6,1.3 -1.7,2q-1,0.8 -2.6,0.8q-2.3,0 -3.7,-1.5q-1.4,-1.4 -1.4,-4.3l0,-8l2.1,0l0,7.7q0,2.1 0.9,3.1q0.9,1 2.7,1q1.9,0 3,-1.3q1.1,-1.3 1.1,-3.5l0,-7l2.1,0l0,16.7q0,0.9 -0.6,1.5q-0.6,0.6 -1.5,0.6zm36.7,-5q-1.8,0 -3.3,-0.8q-1.4,-0.8 -2.3,-2.4q-0.9,-1.5 -0.9,-3.7l0,-0.4q0,-2.2 0.9,-3.7q0.9,-1.6 2.3,-2.4q1.5,-0.8 3.2,-0.8q1.4,0 2.6,0.6q1.2,0.6 1.8,1.9l0.4,0l0,-7.6l2.1,0l0,18.9l-2.1,0l0,-2.1l-0.4,0q-0.6,1.3 -1.9,1.9q-1.2,0.6 -2.4,0.6zm0.2,-2q1.2,0 2.3,-0.6q1,-0.6 1.6,-1.7q0.6,-1.1 0.6,-2.6l0,-0.4q0,-1.4 -0.7,-2.5q-0.6,-1.1 -1.6,-1.7q-1,-0.7 -2.2,-0.7q-1.3,0 -2.3,0.6q-1,0.6 -1.6,1.7q-0.6,1.1 -0.6,2.6l0,0.4q0,1.5 0.6,2.6q0.5,1.1 1.6,1.7q1,0.6 2.3,0.6zm16.6,2q-1.9,0 -3.4,-0.9q-1.5,-0.9 -2.3,-2.4q-0.9,-1.6 -0.9,-3.6l0,-0.7q0,-1.9 0.9,-3.4q0.9,-1.4 2.4,-2.3q1.5,-0.9 3.3,-0.9q1.7,0 2.9,0.6q1.2,0.6 1.9,1.5q0.8,1 1.2,2q0.3,1 0.3,1.9l0,1.8l-10.8,0q0.1,1.9 1.3,3.2q1.2,1.2 3.2,1.2q1.9,0 2.9,-0.8q0.9,-0.8 1.3,-2l2,0.6q-0.6,1.8 -2.1,3q-1.5,1.2 -4.1,1.2zm-4.4,-8.4l8.6,0q0,-1.2 -0.6,-2q-0.6,-0.9 -1.6,-1.3q-0.9,-0.5 -2,-0.5q-1.8,0 -3,1.1q-1.2,1.1 -1.4,2.7zm18.7,8l-4.6,-13.4l2.5,0l4.1,12.4l0.3,0l4.1,-12.4l2.5,0l-4.7,13.4zm18.8,-15.5q-0.8,0 -1.3,-0.6q-0.6,-0.5 -0.6,-1.3q0,-0.8 0.6,-1.3q0.5,-0.6 1.3,-0.6q0.8,0 1.3,0.6q0.6,0.5 0.6,1.3q0,0.8 -0.6,1.3q-0.5,0.6 -1.3,0.6zm-5.7,15.5l0,-1.9l4.7,0l0,-9.5l-4.2,0l0,-2l6.3,0l0,11.5l4.4,0l0,1.9zm22.3,0.4q-1.8,0 -3.4,-0.8q-1.6,-0.8 -2.5,-2.4q-1,-1.5 -1,-3.7l0,-0.3q0,-2.2 1,-3.7q0.9,-1.6 2.5,-2.4q1.6,-0.9 3.4,-0.9q1.7,0 3.1,0.7q1.3,0.7 2.2,1.8q0.8,1.2 1.1,2.7l-2.2,0.4q-0.1,-0.9 -0.6,-1.7q-0.5,-0.8 -1.4,-1.4q-0.9,-0.5 -2.2,-0.5q-1.3,0 -2.4,0.7q-1,0.6 -1.7,1.7q-0.6,1.1 -0.6,2.6l0,0.3q0,1.5 0.6,2.6q0.7,1.1 1.7,1.7q1.1,0.6 2.4,0.6q1.4,0 2.3,-0.5q0.9,-0.6 1.4,-1.4q0.5,-0.8 0.6,-1.7l2.1,0.4q-0.3,1.5 -1.1,2.7q-0.8,1.2 -2.2,1.8q-1.3,0.7 -3.1,0.7zm16.4,0q-1.9,0 -3.4,-0.9q-1.5,-0.9 -2.3,-2.4q-0.9,-1.6 -0.9,-3.6l0,-0.7q0,-1.9 0.9,-3.4q0.9,-1.4 2.4,-2.3q1.5,-0.9 3.3,-0.9q1.7,0 2.9,0.6q1.2,0.6 1.9,1.5q0.8,1 1.2,2q0.3,1 0.3,1.9l0,1.8l-10.8,0q0.1,1.9 1.3,3.2q1.2,1.2 3.2,1.2q1.9,0 2.9,-0.8q0.9,-0.8 1.3,-2l2,0.6q-0.6,1.8 -2.1,3q-1.5,1.2 -4.1,1.2zm-4.4,-8.4l8.6,0q0,-1.2 -0.6,-2q-0.6,-0.9 -1.6,-1.3q-0.9,-0.5 -2,-0.5q-1.8,0 -3,1.1q-1.2,1.1 -1.4,2.7zm37.4,8.4q-1.8,0 -3.3,-0.8q-1.6,-0.8 -2.5,-2.4q-1,-1.5 -1,-3.7l0,-0.4q0,-2.1 1,-3.7q0.9,-1.6 2.5,-2.4q1.5,-0.8 3.3,-0.8q1.7,0 3.3,0.8q1.5,0.8 2.4,2.4q1,1.6 1,3.7l0,0.4q0,2.2 -1,3.7q-0.9,1.6 -2.4,2.4q-1.6,0.8 -3.3,0.8zm0,-2q1.3,0 2.3,-0.6q1,-0.6 1.6,-1.7q0.6,-1.1 0.6,-2.6l0,-0.4q0,-1.4 -0.6,-2.5q-0.6,-1.1 -1.6,-1.8q-1.1,-0.6 -2.3,-0.6q-1.3,0 -2.3,0.6q-1.1,0.7 -1.7,1.8q-0.6,1.1 -0.6,2.5l0,0.4q0,1.5 0.6,2.6q0.6,1.1 1.7,1.7q1,0.6 2.3,0.6zm10.6,1.6l0,-13.4l2.1,0l0,2.3l0.3,0q1.2,-2.7 4.3,-2.7q2.3,0 3.7,1.5q1.4,1.4 1.4,4.3l0,8l-2.1,0l0,-7.6q0,-2.1 -0.9,-3.1q-1,-1.1 -2.6,-1.1q-1.9,0 -3,1.3q-1.1,1.3 -1.1,3.5l0,7zm38.9,0q-1,0 -1.5,-0.6q-0.6,-0.6 -0.6,-1.5l0,-9.3l-4.2,0l0,-2l4.2,0l0,-5.5l2.1,0l0,5.5l5.2,0l0,2l-5.2,0l0,8.6q0,0.9 0.7,0.9l3.8,0l0,1.9zm10.6,0l0,-18.9l2.2,0l0,7.9l0.3,0q0.6,-1.3 1.7,-2q1.1,-0.8 2.8,-0.8q2.1,0 3.5,1.5q1.4,1.4 1.4,4.3l0,8l-2.1,0l0,-7.6q0,-2.1 -1,-3.1q-0.9,-1.1 -2.5,-1.1q-1.9,0 -3,1.3q-1.1,1.3 -1.1,3.5l0,7zm22.5,0.4q-1.9,0 -3.3,-0.9q-1.5,-0.9 -2.4,-2.4q-0.8,-1.6 -0.8,-3.6l0,-0.7q0,-1.9 0.9,-3.4q0.8,-1.4 2.3,-2.3q1.5,-0.9 3.4,-0.9q1.6,0 2.8,0.6q1.2,0.6 2,1.5q0.8,1 1.1,2q0.4,1 0.4,1.9l0,1.8l-10.8,0q0.1,1.9 1.3,3.2q1.1,1.2 3.2,1.2q1.9,0 2.9,-0.8q0.9,-0.8 1.3,-2l1.9,0.6q-0.5,1.8 -2,3q-1.6,1.2 -4.2,1.2zm-4.3,-8.4l8.6,0q0,-1.2 -0.7,-2q-0.6,-0.9 -1.5,-1.3q-1,-0.5 -2,-0.5q-1.8,0 -3,1.1q-1.2,1.1 -1.4,2.7zm31.4,8l0,-13.4l2.1,0l0,2.3l0.4,0q1.2,-2.7 4.3,-2.7q2.3,0 3.7,1.5q1.3,1.4 1.3,4.3l0,8l-2.1,0l0,-7.6q0,-2.1 -0.9,-3.1q-0.9,-1.1 -2.6,-1.1q-1.9,0 -3,1.3q-1.1,1.3 -1.1,3.5l0,7zm22.5,0.4q-1.9,0 -3.4,-0.9q-1.4,-0.9 -2.3,-2.4q-0.8,-1.6 -0.8,-3.6l0,-0.7q0,-1.9 0.8,-3.4q0.9,-1.4 2.4,-2.3q1.5,-0.9 3.4,-0.9q1.6,0 2.8,0.6q1.2,0.6 2,1.5q0.8,1 1.1,2q0.4,1 0.4,1.9l0,1.8l-10.8,0q0.1,1.9 1.2,3.2q1.2,1.2 3.3,1.2q1.9,0 2.8,-0.8q1,-0.8 1.3,-2l2,0.6q-0.5,1.8 -2.1,3q-1.5,1.2 -4.1,1.2zm-4.4,-8.4l8.7,0q-0.1,-1.2 -0.7,-2q-0.6,-0.9 -1.5,-1.3q-1,-0.5 -2,-0.5q-1.8,0 -3,1.1q-1.2,1.1 -1.5,2.7zm20.8,8q-0.9,0 -1.5,-0.6q-0.6,-0.6 -0.6,-1.5l0,-9.3l-4.2,0l0,-2l4.2,0l0,-5.5l2.1,0l0,5.5l5.2,0l0,2l-5.2,0l0,8.6q0,0.9 0.8,0.9l3.8,0l0,1.9zm10.9,0l-2.1,-13.4l2.2,0l1.8,12.4l0.3,0l1.6,-12.4l3.9,0l1.5,12.4l0.3,0l1.8,-12.4l2.2,0l-2.1,13.4l-3.9,0l-1.6,-12.4l-0.4,0l-1.6,12.4zm22.2,0.4q-1.8,0 -3.3,-0.8q-1.5,-0.8 -2.4,-2.4q-1,-1.5 -1,-3.7l0,-0.4q0,-2.1 1,-3.7q0.9,-1.6 2.4,-2.4q1.5,-0.8 3.3,-0.8q1.8,0 3.3,0.8q1.6,0.8 2.5,2.4q1,1.6 1,3.7l0,0.4q0,2.2 -1,3.7q-0.9,1.6 -2.5,2.4q-1.5,0.8 -3.3,0.8zm0,-2q1.3,0 2.4,-0.6q1,-0.6 1.6,-1.7q0.6,-1.1 0.6,-2.6l0,-0.4q0,-1.4 -0.6,-2.5q-0.6,-1.1 -1.7,-1.8q-1,-0.6 -2.3,-0.6q-1.2,0 -2.3,0.6q-1,0.7 -1.6,1.8q-0.6,1.1 -0.6,2.5l0,0.4q0,1.5 0.6,2.6q0.6,1.1 1.6,1.7q1.1,0.6 2.3,0.6zm9.6,1.6l0,-1.9l3,0l0,-9.5l-2.7,0l0,-2l4.8,0l0,1.8l0.4,0q0.5,-1.1 1.4,-1.6q1,-0.6 2.2,-0.6q2,0 3.2,1.4q1.3,1.3 1.4,3.8l-2.2,0.3q0,-1.8 -0.9,-2.6q-0.9,-0.9 -2.2,-0.9q-1.7,0 -2.5,1.2q-0.8,1.2 -0.8,3l0,5.7l3.4,0l0,1.9zm18.9,0l0,-18.9l2.1,0l0,11.1l0.5,0l5.1,-5.6l2.6,0l0,0.2l-5.6,6.1l0,0.5l6.2,6.4l0,0.2l-2.6,0l-5.7,-5.9l-0.5,0l0,5.9zm19.5,3.2l0,-1.4l1.3,0q0.7,0 0.7,-0.8l0,-0.7q-0.2,0.1 -0.4,0.1q-0.8,0 -1.3,-0.6q-0.6,-0.6 -0.6,-1.3q0,-0.8 0.6,-1.3q0.5,-0.6 1.3,-0.6q0.8,0 1.3,0.6q0.6,0.5 0.6,1.3l0,2.6q0,1 -0.6,1.5q-0.6,0.6 -1.5,0.6zm34.8,-18.7q-0.8,0 -1.3,-0.6q-0.6,-0.5 -0.6,-1.3q0,-0.8 0.6,-1.3q0.5,-0.6 1.3,-0.6q0.8,0 1.3,0.6q0.6,0.5 0.6,1.3q0,0.8 -0.6,1.3q-0.5,0.6 -1.3,0.6zm-5.7,15.5l0,-1.9l4.7,0l0,-9.5l-4.3,0l0,-2l6.4,0l0,11.5l4.3,0l0,1.9zm16.2,0l0,-13.4l2.1,0l0,2.3l0.3,0q1.2,-2.7 4.3,-2.7q2.3,0 3.7,1.5q1.4,1.4 1.4,4.3l0,8l-2.1,0l0,-7.6q0,-2.1 -1,-3.1q-0.9,-1.1 -2.5,-1.1q-1.9,0 -3,1.3q-1.1,1.3 -1.1,3.5l0,7zm32.5,5.4l0,-18.8l2.1,0l0,2.1l0.4,0q0.7,-1.2 1.9,-1.8q1.2,-0.7 2.7,-0.7q1.6,0 3,0.8q1.5,0.8 2.3,2.3q0.9,1.6 0.9,3.7l0,0.6q0,2.2 -0.9,3.7q-0.8,1.5 -2.2,2.3q-1.5,0.8 -3.2,0.8q-1.3,0 -2.5,-0.6q-1.3,-0.6 -2,-1.9l-0.4,0l0,7.5zm6.6,-7q1.9,0 3.2,-1.3q1.3,-1.3 1.3,-3.5l0,-0.6q0,-1.4 -0.6,-2.5q-0.6,-1.1 -1.6,-1.7q-1,-0.6 -2.3,-0.6q-1.2,0 -2.2,0.7q-1.1,0.6 -1.7,1.7q-0.6,1.1 -0.6,2.5l0,0.4q0,1.5 0.6,2.6q0.6,1.1 1.6,1.7q1.1,0.6 2.3,0.6zm15.6,2q-1.7,0 -3.2,-0.8q-1.4,-0.8 -2.2,-2.3q-0.8,-1.6 -0.8,-3.8l0,-0.4q0,-2.2 0.8,-3.7q0.8,-1.6 2.2,-2.4q1.5,-0.8 3.2,-0.8q1.3,0 2.5,0.6q1.1,0.6 1.7,1.9l0.4,0l0,-2.1l2.1,0l0,10.6q0,0.9 0.7,0.9l0.7,0l0,1.9l-1.5,0q-0.8,0 -1.4,-0.5q-0.6,-0.6 -0.6,-1.8l-0.4,0q-0.6,1.4 -1.8,2q-1.1,0.7 -2.4,0.7zm0.2,-2q1.9,0 3.1,-1.4q1.3,-1.3 1.3,-3.5l0,-0.4q0,-1.4 -0.6,-2.5q-0.6,-1.1 -1.6,-1.7q-0.9,-0.7 -2.2,-0.7q-1.2,0 -2.2,0.6q-1,0.6 -1.5,1.7q-0.6,1.1 -0.6,2.6l0,0.4q0,2.3 1.2,3.6q1.2,1.3 3.1,1.3zm10.1,1.6l0,-1.9l3.1,0l0,-9.5l-2.8,0l0,-2l4.9,0l0,1.8l0.3,0q0.5,-1.1 1.5,-1.6q0.9,-0.6 2.1,-0.6q2,0 3.3,1.4q1.2,1.3 1.3,3.8l-2.2,0.3q0,-1.8 -0.9,-2.6q-0.9,-0.9 -2.2,-0.9q-1.6,0 -2.4,1.2q-0.8,1.2 -0.8,3l0,5.7l3.4,0l0,1.9zm22.8,0.4q-1.8,0 -3.2,-0.8q-1.4,-0.8 -2.3,-2.3q-0.8,-1.6 -0.8,-3.8l0,-0.4q0,-2.2 0.8,-3.7q0.9,-1.6 2.3,-2.4q1.4,-0.8 3.1,-0.8q1.4,0 2.5,0.6q1.1,0.6 1.8,1.9l0.3,0l0,-2.1l2.1,0l0,10.6q0,0.9 0.7,0.9l0.7,0l0,1.9l-1.4,0q-0.9,0 -1.5,-0.5q-0.6,-0.6 -0.6,-1.8l-0.3,0q-0.7,1.4 -1.8,2q-1.2,0.7 -2.4,0.7zm0.2,-2q1.9,0 3.1,-1.4q1.2,-1.3 1.2,-3.5l0,-0.4q0,-1.4 -0.6,-2.5q-0.5,-1.1 -1.5,-1.7q-1,-0.7 -2.2,-0.7q-1.3,0 -2.2,0.6q-1,0.6 -1.6,1.7q-0.5,1.1 -0.5,2.6l0,0.4q0,2.3 1.2,3.6q1.2,1.3 3.1,1.3zm11.1,1.6l0,-1.9l4.9,0l0,-15.1l-4.7,0l0,-1.9l6.8,0l0,17l4.8,0l0,1.9zm16.5,0l0,-1.9l4.9,0l0,-15.1l-4.7,0l0,-1.9l6.8,0l0,17l4.9,0l0,1.9zm22.5,0.4q-1.9,0 -3.4,-0.9q-1.4,-0.9 -2.3,-2.4q-0.8,-1.6 -0.8,-3.6l0,-0.7q0,-1.9 0.9,-3.4q0.8,-1.4 2.3,-2.3q1.5,-0.9 3.4,-0.9q1.6,0 2.8,0.6q1.2,0.6 2,1.5q0.8,1 1.1,2q0.4,1 0.4,1.9l0,1.8l-10.8,0q0.1,1.9 1.2,3.2q1.2,1.2 3.3,1.2q1.9,0 2.8,-0.8q1,-0.8 1.3,-2l2,0.6q-0.5,1.8 -2.1,3q-1.5,1.2 -4.1,1.2zm-4.4,-8.4l8.7,0q-0.1,-1.2 -0.7,-2q-0.6,-0.9 -1.5,-1.3q-1,-0.5 -2,-0.5q-1.8,0 -3,1.1q-1.2,1.1 -1.5,2.7zm15,8l0,-1.9l4.8,0l0,-15.1l-4.7,0l0,-1.9l6.8,0l0,17l4.9,0l0,1.9z"/></g></g></svg>
