<svg xmlns="http://www.w3.org/2000/svg" viewBox="0 0 1280 320" width="1280" height="320" role="img" aria-label="ScriptPoblar"><defs><clipPath id="c"><rect width="1280" height="320" rx="18"/></clipPath></defs><g clip-path="url(#c)"><rect width="1280" height="320" fill="#312e81"/><path fill="#fff" d="M58.6,143.8l15.5,0q0.2,2.7 1.6,4q1.4,1.2 3.6,1.2q2,0 3.3,-1q1.3,-0.9 1.3,-2.7q0,-2.3 -2.1,-3.6q-2.2,-1.2 -7,-2.8q-5.1,-1.7 -8.3,-3.3q-3.1,-1.6 -5.4,-4.6q-2.4,-3.1 -2.4,-8.1q0,-5 2.6,-8.6q2.5,-3.6 6.9,-5.4q4.5,-1.9 10.1,-1.9q9.1,0 14.5,4.3q5.5,4.2 5.8,11.9l-15.7,0q-0.1,-2.3 -1.5,-3.5q-1.4,-1.2 -3.5,-1.2q-1.6,0 -2.7,0.9q-1,1 -1,2.8q0,1.5 1.2,2.5q1.1,1.1 2.8,1.9q1.7,0.8 5,2q5,1.7 8.2,3.3q3.2,1.7 5.6,4.7q2.3,3 2.3,7.6q0,4.6 -2.3,8.3q-2.4,3.7 -6.8,5.9q-4.4,2.1 -10.4,2.1q-9.1,0 -14.9,-4.3q-5.9,-4.3 -6.3,-12.4zm66.1,-25.8q7.9,0 13.3,4.3q5.4,4.3 6.9,12.1l-15.3,0q-1.4,-4.1 -5.2,-4.1q-2.8,0 -4.4,2.3q-1.5,2.2 -1.5,6.6q0,4.4 1.5,6.7q1.6,2.3 4.4,2.3q3.9,0 5.2,-4.1l15.3,0q-1.5,7.7 -6.9,12.1q-5.4,4.3 -13.3,4.3q-6.2,0 -10.9,-2.6q-4.8,-2.6 -7.5,-7.4q-2.6,-4.8 -2.6,-11.3q0,-6.4 2.6,-11.2q2.7,-4.9 7.5,-7.4q4.7,-2.6 10.9,-2.6zm54.1,0.1l0,15.5l-4,0q-4.8,0 -7.1,1.8q-2.3,1.9 -2.3,6.5l0,18.1l-14.5,0l0,-41.5l14.5,0l0,7.3q2.5,-3.5 6,-5.6q3.4,-2.1 7.4,-2.1zm4,-10.9q0,-3.2 2.4,-5.4q2.3,-2.1 6.1,-2.1q3.8,0 6.2,2.1q2.3,2.2 2.3,5.4q0,3.2 -2.3,5.3q-2.4,2.1 -6.2,2.1q-3.8,0 -6.1,-2.1q-2.4,-2.1 -2.4,-5.3zm15.7,11.3l0,41.5l-14.5,0l0,-41.5zm35,-0.5q4.9,0 8.9,2.6q4.1,2.5 6.4,7.4q2.3,4.8 2.3,11.2q0,6.4 -2.3,11.3q-2.3,4.8 -6.4,7.4q-4,2.6 -8.9,2.6q-4.3,0 -7.3,-1.7q-3.1,-1.7 -4.9,-4.6l0,25.6l-14.5,0l0,-61.3l14.5,0l0,5.8q1.7,-2.9 4.8,-4.6q3.1,-1.7 7.4,-1.7zm-4.6,12.6q-3.2,0 -5.4,2.3q-2.2,2.3 -2.2,6.3q0,4.1 2.2,6.4q2.2,2.3 5.4,2.3q3.1,0 5.3,-2.4q2.2,-2.3 2.2,-6.3q0,-4.1 -2.2,-6.3q-2.2,-2.3 -5.3,-2.3zm52.7,17l0,12.4l-6.3,0q-15.9,0 -15.9,-15.8l0,-13.7l-5.1,0l0,-12l5.1,0l0,-10.1l14.6,0l0,10.1l7.6,0l0,12l-7.6,0l0,14q0,1.7 0.8,2.4q0.8,0.7 2.6,0.7zm28.4,-5.2l-7.2,0l0,17.6l-14.5,0l0,-52.2l21.7,0q6.3,0 10.7,2.3q4.4,2.2 6.6,6.1q2.2,3.9 2.2,9q0,4.8 -2.2,8.6q-2.2,3.9 -6.6,6.3q-4.4,2.3 -10.7,2.3zm4.7,-17.2q0,-5.7 -6.1,-5.7l-5.8,0l0,11.3l5.8,0q6.1,0 6.1,-5.6zm18.3,14q0,-6.4 2.8,-11.2q2.9,-4.9 7.8,-7.4q4.9,-2.6 11.1,-2.6q6.3,0 11.2,2.6q4.9,2.5 7.7,7.4q2.9,4.8 2.9,11.2q0,6.4 -2.9,11.3q-2.8,4.8 -7.8,7.4q-4.9,2.6 -11.1,2.6q-6.3,0 -11.2,-2.6q-4.9,-2.6 -7.7,-7.4q-2.8,-4.8 -2.8,-11.3zm28.8,0q0,-4.2 -2.1,-6.4q-2,-2.3 -5,-2.3q-2.9,0 -4.9,2.3q-2,2.2 -2,6.4q0,4.3 1.9,6.5q1.9,2.2 5,2.2q3,0 5,-2.2q2.1,-2.3 2.1,-6.5zm47.3,-21.2q4.9,0 8.9,2.6q4.1,2.5 6.4,7.4q2.3,4.8 2.3,11.2q0,6.4 -2.3,11.3q-2.3,4.8 -6.4,7.4q-4,2.6 -8.9,2.6q-4.3,0 -7.4,-1.6q-3.1,-1.7 -4.8,-4.7l0,5.8l-14.5,0l0,-54.8l14.5,0l0,19.1q1.7,-3 4.8,-4.7q3.1,-1.6 7.4,-1.6zm-4.6,12.6q-3.2,0 -5.4,2.3q-2.2,2.3 -2.2,6.3q0,4.1 2.2,6.4q2.2,2.3 5.4,2.3q3.1,0 5.3,-2.4q2.2,-2.3 2.2,-6.3q0,-4.1 -2.2,-6.3q-2.2,-2.3 -5.3,-2.3zm42.7,-25.4l0,54.8l-14.5,0l0,-54.8zm23.6,12.8q4.3,0 7.4,1.7q3.2,1.7 4.9,4.6l0,-5.8l14.5,0l0,41.5l-14.5,0l0,-5.8q-1.7,2.9 -4.9,4.6q-3.1,1.7 -7.4,1.7q-4.9,0 -8.9,-2.6q-4.1,-2.6 -6.4,-7.4q-2.3,-4.9 -2.3,-11.3q0,-6.4 2.3,-11.2q2.3,-4.9 6.4,-7.4q4,-2.6 8.9,-2.6zm4.7,12.6q-3.3,0 -5.4,2.3q-2.1,2.2 -2.1,6.3q0,4 2.1,6.3q2.1,2.4 5.4,2.4q3.2,0 5.4,-2.3q2.2,-2.3 2.2,-6.4q0,-4 -2.2,-6.3q-2.2,-2.3 -5.4,-2.3zm58.2,-12.5l0,15.5l-4,0q-4.8,0 -7.1,1.8q-2.2,1.9 -2.2,6.5l0,18.1l-14.6,0l0,-41.5l14.6,0l0,7.3q2.4,-3.5 5.9,-5.6q3.4,-2.1 7.4,-2.1z"/><path fill="#fbcfe8" d="M69.3,206.2l-7.8,0l-1.4,3.8l-3.2,0l6.7,-18.8l3.6,0l6.7,18.8l-3.2,0zm-0.8,-2.5l-3.1,-8.8l-3.1,8.8zm14.4,-8.8q1.4,0 2.8,0.6q1.5,0.6 2.3,1.7l0,-7.2l3.1,0l0,20l-3.1,0l0,-2.2q-0.8,1 -2.1,1.7q-1.3,0.7 -3.1,0.7q-1.9,0 -3.5,-0.9q-1.6,-1 -2.6,-2.8q-0.9,-1.8 -0.9,-4q0,-2.2 0.9,-4q1,-1.7 2.6,-2.7q1.6,-0.9 3.6,-0.9zm0.6,2.7q-1.2,0 -2.2,0.5q-1.1,0.6 -1.7,1.7q-0.6,1.2 -0.6,2.7q0,1.5 0.6,2.7q0.6,1.2 1.7,1.8q1,0.6 2.2,0.6q1.2,0 2.2,-0.6q1,-0.6 1.7,-1.8q0.6,-1.1 0.6,-2.7q0,-1.5 -0.6,-2.6q-0.7,-1.2 -1.7,-1.8q-1,-0.5 -2.2,-0.5zm10.7,4.9q0,-2.2 1,-4q0.9,-1.7 2.7,-2.7q1.7,-0.9 3.8,-0.9q2.2,0 3.9,0.9q1.7,1 2.7,2.7q1,1.8 1,4q0,2.3 -1,4.1q-1,1.7 -2.8,2.7q-1.8,0.9 -3.9,0.9q-2.1,0 -3.8,-0.9q-1.7,-1 -2.7,-2.7q-0.9,-1.8 -0.9,-4.1zm12,0q0,-1.6 -0.7,-2.7q-0.6,-1.1 -1.6,-1.7q-1,-0.5 -2.2,-0.5q-1.2,0 -2.2,0.5q-1,0.6 -1.6,1.7q-0.6,1.1 -0.6,2.7q0,2.5 1.2,3.8q1.2,1.3 3.1,1.3q1.2,0 2.2,-0.6q1.1,-0.6 1.7,-1.7q0.7,-1.1 0.7,-2.8zm14.4,-7.6q2,0 3.6,0.9q1.6,1 2.5,2.7q0.9,1.8 0.9,4q0,2.2 -0.9,4q-0.9,1.8 -2.5,2.8q-1.6,0.9 -3.6,0.9q-1.7,0 -3,-0.6q-1.3,-0.7 -2.1,-1.8l0,9.3l-3.1,0l0,-22l3.1,0l0,2.2q0.7,-1 2.1,-1.7q1.3,-0.7 3,-0.7zm-0.6,2.7q-1.2,0 -2.2,0.5q-1.1,0.6 -1.7,1.8q-0.6,1.1 -0.6,2.6q0,1.6 0.6,2.7q0.6,1.2 1.7,1.8q1,0.6 2.2,0.6q1.2,0 2.2,-0.6q1,-0.6 1.7,-1.8q0.6,-1.2 0.6,-2.7q0,-1.5 -0.6,-2.7q-0.7,-1.1 -1.7,-1.7q-1,-0.5 -2.2,-0.5zm14.3,0l0,8.3q0,0.8 0.4,1.2q0.4,0.3 1.3,0.3l1.9,0l0,2.6l-2.4,0q-2.1,0 -3.2,-1q-1.1,-0.9 -1.1,-3.1l0,-8.3l-1.8,0l0,-2.5l1.8,0l0,-3.7l3.1,0l0,3.7l3.6,0l0,2.5zm27,6.1l-11.4,0q0.1,1.8 1.3,2.9q1.2,1.1 2.9,1.1q2.5,0 3.6,-2.1l3.3,0q-0.7,2 -2.5,3.3q-1.7,1.3 -4.4,1.3q-2.1,0 -3.8,-0.9q-1.7,-1 -2.6,-2.7q-1,-1.8 -1,-4.1q0,-2.2 1,-4q0.9,-1.7 2.6,-2.7q1.7,-0.9 3.8,-0.9q2.2,0 3.8,0.9q1.6,0.9 2.6,2.6q0.9,1.6 0.9,3.8q0,0.8 -0.1,1.5zm-3.1,-2.5q-0.1,-1.7 -1.2,-2.7q-1.2,-1 -3,-1q-1.6,0 -2.7,1q-1.2,1 -1.4,2.7zm12,6l4.2,-12.1l3.2,0l-5.6,14.9l-3.7,0l-5.6,-14.9l3.2,0zm23.3,-3.5l-11.4,0q0.2,1.8 1.3,2.9q1.2,1.1 3,1.1q2.4,0 3.5,-2.1l3.3,0q-0.7,2 -2.5,3.3q-1.7,1.3 -4.3,1.3q-2.2,0 -3.9,-0.9q-1.7,-1 -2.6,-2.7q-1,-1.8 -1,-4.1q0,-2.2 1,-4q0.9,-1.7 2.6,-2.7q1.7,-0.9 3.9,-0.9q2.1,0 3.7,0.9q1.7,0.9 2.6,2.6q0.9,1.6 0.9,3.8q0,0.8 -0.1,1.5zm-3.1,-2.5q0,-1.7 -1.2,-2.7q-1.2,-1 -3,-1q-1.6,0 -2.7,1q-1.1,1 -1.4,2.7zm13.7,-6.3l0,3.2l-0.7,0q-1.8,0 -2.8,0.9q-0.9,0.9 -0.9,3.2l0,7.8l-3.1,0l0,-14.9l3.1,0l0,2.2q0.7,-1.2 1.8,-1.8q1.1,-0.6 2.6,-0.6zm16.3,0.2l-9.2,21.9l-3.1,0l3,-7.2l-5.9,-14.7l3.5,0l4.1,11.4l4.4,-11.4zm15.3,-0.2q1.5,0 2.9,0.6q1.4,0.6 2.3,1.7l0,-7.2l3.1,0l0,20l-3.1,0l0,-2.2q-0.8,1 -2.1,1.7q-1.4,0.7 -3.1,0.7q-1.9,0 -3.5,-0.9q-1.6,-1 -2.6,-2.8q-0.9,-1.8 -0.9,-4q0,-2.2 0.9,-4q1,-1.7 2.6,-2.7q1.6,-0.9 3.5,-0.9zm0.7,2.7q-1.2,0 -2.3,0.5q-1,0.6 -1.6,1.7q-0.6,1.2 -0.6,2.7q0,1.5 0.6,2.7q0.6,1.2 1.7,1.8q1,0.6 2.2,0.6q1.1,0 2.2,-0.6q1,-0.6 1.6,-1.8q0.7,-1.1 0.7,-2.7q0,-1.5 -0.7,-2.6q-0.6,-1.2 -1.6,-1.8q-1.1,-0.5 -2.2,-0.5zm25.2,6.1l-11.4,0q0.1,1.8 1.3,2.9q1.2,1.1 2.9,1.1q2.5,0 3.5,-2.1l3.4,0q-0.7,2 -2.5,3.3q-1.8,1.3 -4.4,1.3q-2.1,0 -3.8,-0.9q-1.7,-1 -2.6,-2.7q-1,-1.8 -1,-4.1q0,-2.2 0.9,-4q1,-1.7 2.6,-2.7q1.7,-0.9 3.9,-0.9q2.1,0 3.8,0.9q1.6,0.9 2.5,2.6q1,1.6 1,3.8q0,0.8 -0.1,1.5zm-3.2,-2.5q0,-1.7 -1.2,-2.7q-1.2,-1 -2.9,-1q-1.6,0 -2.7,1q-1.2,1 -1.4,2.7zm12,6l4.2,-12.1l3.3,0l-5.7,14.9l-3.6,0l-5.7,-14.9l3.3,0zm9.4,-16q0,-0.9 0.6,-1.4q0.6,-0.6 1.4,-0.6q0.8,0 1.4,0.6q0.5,0.5 0.5,1.4q0,0.8 -0.5,1.4q-0.6,0.6 -1.4,0.6q-0.8,0 -1.4,-0.6q-0.6,-0.6 -0.6,-1.4zm3.5,3.9l0,14.9l-3.1,0l0,-14.9zm10.3,-0.2q2.7,0 4.5,1.3q1.8,1.2 2.4,3.6l-3.3,0q-0.4,-1.1 -1.3,-1.7q-0.9,-0.6 -2.3,-0.6q-1.9,0 -3,1.3q-1.1,1.3 -1.1,3.7q0,2.5 1.1,3.8q1.1,1.4 3,1.4q2.7,0 3.6,-2.4l3.3,0q-0.7,2.3 -2.4,3.6q-1.8,1.3 -4.5,1.3q-2.1,0 -3.8,-0.9q-1.6,-1 -2.5,-2.7q-1,-1.8 -1,-4.1q0,-2.2 1,-4q0.9,-1.7 2.5,-2.7q1.7,-0.9 3.8,-0.9zm23.5,8.8l-11.4,0q0.2,1.8 1.3,2.9q1.2,1.1 3,1.1q2.4,0 3.5,-2.1l3.3,0q-0.7,2 -2.5,3.3q-1.7,1.3 -4.3,1.3q-2.2,0 -3.9,-0.9q-1.6,-1 -2.6,-2.7q-1,-1.8 -1,-4.1q0,-2.2 1,-4q0.9,-1.7 2.6,-2.7q1.7,-0.9 3.9,-0.9q2.1,0 3.7,0.9q1.7,0.9 2.6,2.6q0.9,1.6 0.9,3.8q0,0.8 -0.1,1.5zm-3.1,-2.5q0,-1.7 -1.2,-2.7q-1.2,-1 -3,-1q-1.6,0 -2.7,1q-1.1,1 -1.3,2.7zm12.2,1.3q0,-2.2 1,-4q1,-1.7 2.8,-2.7q1.7,-0.9 3.8,-0.9q2.2,0 3.9,0.9q1.7,1 2.7,2.7q1,1.8 1,4q0,2.3 -1,4.1q-1,1.7 -2.8,2.7q-1.8,0.9 -3.9,0.9q-2.1,0 -3.8,-0.9q-1.7,-1 -2.7,-2.7q-1,-1.8 -1,-4.1zm12.1,0q0,-1.6 -0.7,-2.7q-0.6,-1.1 -1.6,-1.7q-1,-0.5 -2.2,-0.5q-1.2,0 -2.2,0.5q-1,0.6 -1.6,1.7q-0.6,1.1 -0.6,2.7q0,2.5 1.2,3.8q1.2,1.3 3.1,1.3q1.2,0 2.2,-0.6q1.1,-0.6 1.7,-1.7q0.7,-1.1 0.7,-2.8zm19.8,-1.3l0,8.8l-3.1,0l0,-8.3q0,-2 -1,-3.1q-1,-1 -2.7,-1q-1.7,0 -2.7,1q-1.1,1.1 -1.1,3.1l0,8.3l-3,0l0,-14.9l3,0l0,1.7q0.8,-0.9 2,-1.4q1.2,-0.5 2.5,-0.5q1.7,0 3.1,0.7q1.4,0.7 2.2,2.2q0.8,1.4 0.8,3.4zm14.5,-3.6l0,8.3q0,0.8 0.4,1.2q0.4,0.3 1.3,0.3l1.9,0l0,2.6l-2.4,0q-2.1,0 -3.2,-1q-1.1,-0.9 -1.1,-3.1l0,-8.3l-1.8,0l0,-2.5l1.8,0l0,-3.7l3.1,0l0,3.7l3.6,0l0,2.5zm20.1,3.6l0,8.8l-3.1,0l0,-8.3q0,-2 -1,-3.1q-1,-1 -2.7,-1q-1.7,0 -2.8,1q-1,1.1 -1,3.1l0,8.3l-3,0l0,-20l3,0l0,6.9q0.8,-1 2,-1.5q1.2,-0.5 2.7,-0.5q1.7,0 3,0.7q1.3,0.7 2.1,2.2q0.8,1.4 0.8,3.4zm17.4,2.5l-11.4,0q0.2,1.8 1.4,2.9q1.1,1.1 2.9,1.1q2.5,0 3.5,-2.1l3.3,0q-0.7,2 -2.4,3.3q-1.8,1.3 -4.4,1.3q-2.2,0 -3.8,-0.9q-1.7,-1 -2.7,-2.7q-0.9,-1.8 -0.9,-4.1q0,-2.2 0.9,-4q0.9,-1.7 2.6,-2.7q1.7,-0.9 3.9,-0.9q2.1,0 3.7,0.9q1.7,0.9 2.6,2.6q0.9,1.6 0.9,3.8q0,0.8 -0.1,1.5zm-3.1,-2.5q0,-1.7 -1.2,-2.7q-1.2,-1 -3,-1q-1.6,0 -2.7,1q-1.1,1 -1.3,2.7zm26.9,0l0,8.8l-3.1,0l0,-8.3q0,-2 -1,-3.1q-1,-1 -2.7,-1q-1.7,0 -2.8,1q-1,1.1 -1,3.1l0,8.3l-3,0l0,-14.9l3,0l0,1.7q0.8,-0.9 2,-1.4q1.1,-0.5 2.5,-0.5q1.7,0 3.1,0.7q1.4,0.7 2.2,2.2q0.8,1.4 0.8,3.4zm17.4,2.5l-11.4,0q0.2,1.8 1.4,2.9q1.2,1.1 2.9,1.1q2.5,0 3.5,-2.1l3.3,0q-0.7,2 -2.4,3.3q-1.8,1.3 -4.4,1.3q-2.2,0 -3.8,-0.9q-1.7,-1 -2.7,-2.7q-0.9,-1.8 -0.9,-4.1q0,-2.2 0.9,-4q0.9,-1.7 2.6,-2.7q1.7,-0.9 3.9,-0.9q2.1,0 3.7,0.9q1.7,0.9 2.6,2.6q0.9,1.6 0.9,3.8q0,0.8 -0.1,1.5zm-3.1,-2.5q0,-1.7 -1.2,-2.7q-1.2,-1 -3,-1q-1.5,0 -2.7,1q-1.1,1 -1.3,2.7zm9.8,-3.6l0,8.3q0,0.8 0.4,1.2q0.4,0.3 1.4,0.3l1.8,0l0,2.6l-2.4,0q-2.1,0 -3.2,-1q-1.1,-0.9 -1.1,-3.1l0,-8.3l-1.7,0l0,-2.5l1.7,0l0,-3.7l3.1,0l0,3.7l3.6,0l0,2.5zm26.5,-2.5l-4.7,14.9l-3.2,0l-3,-11l-3,11l-3.2,0l-4.7,-14.9l3.2,0l3.1,12l3.1,-12l3.2,0l3.1,11.9l3,-11.9zm1.3,7.4q0,-2.2 1,-4q1,-1.7 2.7,-2.7q1.7,-0.9 3.8,-0.9q2.2,0 3.9,0.9q1.7,1 2.7,2.7q1,1.8 1,4q0,2.3 -1,4.1q-1,1.7 -2.8,2.7q-1.8,0.9 -3.9,0.9q-2.1,0 -3.8,-0.9q-1.7,-1 -2.7,-2.7q-0.9,-1.8 -0.9,-4.1zm12,0q0,-1.6 -0.6,-2.7q-0.7,-1.1 -1.7,-1.7q-1,-0.5 -2.2,-0.5q-1.2,0 -2.2,0.5q-1,0.6 -1.6,1.7q-0.6,1.1 -0.6,2.7q0,2.5 1.2,3.8q1.2,1.3 3.1,1.3q1.2,0 2.2,-0.6q1.1,-0.6 1.7,-1.7q0.7,-1.1 0.7,-2.8zm13.7,-7.6l0,3.2l-0.8,0q-1.8,0 -2.7,0.9q-0.9,0.9 -0.9,3.2l0,7.8l-3.1,0l0,-14.9l3.1,0l0,2.2q0.6,-1.2 1.8,-1.8q1.1,-0.6 2.6,-0.6zm8.7,7.7l6.9,7.4l-4.2,0l-5.5,-6.4l0,6.4l-3,0l0,-20l3,0l0,11.6l5.4,-6.5l4.3,0zm12.5,3.7l-3.3,7.5l-2,0l1.9,-7.5zm9.3,-15.1q0,-0.9 0.6,-1.4q0.5,-0.6 1.4,-0.6q0.8,0 1.3,0.6q0.6,0.5 0.6,1.4q0,0.8 -0.6,1.4q-0.5,0.6 -1.3,0.6q-0.9,0 -1.4,-0.6q-0.6,-0.6 -0.6,-1.4zm3.5,3.9l0,14.9l-3.1,0l0,-14.9zm17.6,6.1l0,8.8l-3,0l0,-8.3q0,-2 -1,-3.1q-1,-1 -2.7,-1q-1.8,0 -2.8,1q-1,1.1 -1,3.1l0,8.3l-3.1,0l0,-14.9l3.1,0l0,1.7q0.8,-0.9 1.9,-1.4q1.2,-0.5 2.5,-0.5q1.8,0 3.2,0.7q1.4,0.7 2.2,2.2q0.7,1.4 0.7,3.4zm19.2,-6.3q2,0 3.6,0.9q1.6,1 2.5,2.7q0.9,1.8 0.9,4q0,2.2 -0.9,4q-0.9,1.8 -2.5,2.8q-1.6,0.9 -3.6,0.9q-1.7,0 -3,-0.6q-1.3,-0.7 -2.1,-1.8l0,9.3l-3.1,0l0,-22l3.1,0l0,2.2q0.7,-1 2.1,-1.7q1.3,-0.7 3,-0.7zm-0.6,2.7q-1.2,0 -2.2,0.5q-1.1,0.6 -1.7,1.8q-0.6,1.1 -0.6,2.6q0,1.6 0.6,2.7q0.6,1.2 1.7,1.8q1,0.6 2.2,0.6q1.2,0 2.2,-0.6q1,-0.6 1.7,-1.8q0.6,-1.2 0.6,-2.7q0,-1.5 -0.6,-2.7q-0.7,-1.1 -1.7,-1.7q-1,-0.5 -2.2,-0.5zm16.7,-2.7q1.7,0 3,0.7q1.4,0.7 2.1,1.7l0,-2.2l3.1,0l0,14.9l-3.1,0l0,-2.2q-0.7,1 -2.1,1.7q-1.3,0.7 -3.1,0.7q-1.9,0 -3.5,-0.9q-1.6,-1 -2.5,-2.8q-0.9,-1.8 -0.9,-4q0,-2.2 0.9,-4q0.9,-1.7 2.5,-2.7q1.6,-0.9 3.6,-0.9zm0.6,2.7q-1.2,0 -2.2,0.5q-1,0.6 -1.7,1.7q-0.6,1.2 -0.6,2.7q0,1.5 0.6,2.7q0.7,1.2 1.7,1.8q1.1,0.6 2.2,0.6q1.2,0 2.2,-0.6q1.1,-0.6 1.7,-1.8q0.6,-1.1 0.6,-2.7q0,-1.5 -0.6,-2.6q-0.6,-1.2 -1.7,-1.8q-1,-0.5 -2.2,-0.5zm19.2,-2.7l0,3.2l-0.8,0q-1.8,0 -2.7,0.9q-0.9,0.9 -0.9,3.2l0,7.8l-3.1,0l0,-14.9l3.1,0l0,2.2q0.6,-1.2 1.8,-1.8q1.1,-0.6 2.6,-0.6zm8.9,0q1.7,0 3,0.7q1.3,0.7 2.1,1.7l0,-2.2l3.1,0l0,14.9l-3.1,0l0,-2.2q-0.8,1 -2.1,1.7q-1.4,0.7 -3.1,0.7q-1.9,0 -3.5,-0.9q-1.6,-1 -2.5,-2.8q-1,-1.8 -1,-4q0,-2.2 1,-4q0.9,-1.7 2.5,-2.7q1.6,-0.9 3.6,-0.9zm0.6,2.7q-1.2,0 -2.2,0.5q-1,0.6 -1.7,1.7q-0.6,1.2 -0.6,2.7q0,1.5 0.6,2.7q0.7,1.2 1.7,1.8q1,0.6 2.2,0.6q1.2,0 2.2,-0.6q1,-0.6 1.7,-1.8q0.6,-1.1 0.6,-2.7q0,-1.5 -0.6,-2.6q-0.7,-1.2 -1.7,-1.8q-1,-0.5 -2.2,-0.5zm14.7,-7.6l0,20l-3,0l0,-20zm7.2,0l0,20l-3.1,0l0,-20zm17.5,13.7l-11.3,0q0.1,1.8 1.3,2.9q1.2,1.1 2.9,1.1q2.5,0 3.5,-2.1l3.3,0q-0.6,2 -2.4,3.3q-1.8,1.3 -4.4,1.3q-2.1,0 -3.8,-0.9q-1.7,-1 -2.6,-2.7q-1,-1.8 -1,-4.1q0,-2.2 0.9,-4q1,-1.7 2.6,-2.7q1.7,-0.9 3.9,-0.9q2.1,0 3.8,0.9q1.6,0.9 2.5,2.6q1,1.6 1,3.8q0,0.8 -0.2,1.5zm-3.1,-2.5q0,-1.7 -1.2,-2.7q-1.2,-1 -2.9,-1q-1.6,0 -2.7,1q-1.2,1 -1.4,2.7zm9.4,-11.2l0,20l-3.1,0l0,-20z"/><path d="M950,190 C950,250 800,162 800,244" fill="none" stroke="#f472b6" stroke-width="16" stroke-linecap="round"/><path d="M970,190 C970,250 870,162 870,244" fill="none" stroke="#f472b6" stroke-width="16" stroke-linecap="round"/><path d="M990,190 C990,250 940,162 940,244" fill="none" stroke="#f472b6" stroke-width="16" stroke-linecap="round"/><path d="M1010,190 C1010,250 1010,162 1010,244" fill="none" stroke="#f472b6" stroke-width="16" stroke-linecap="round"/><path d="M1030,190 C1030,250 1080,162 1080,244" fill="none" stroke="#f472b6" stroke-width="16" stroke-linecap="round"/><path d="M1050,190 C1050,250 1150,162 1150,244" fill="none" stroke="#f472b6" stroke-width="16" stroke-linecap="round"/><path d="M1070,190 C1070,250 1220,162 1220,244" fill="none" stroke="#f472b6" stroke-width="16" stroke-linecap="round"/><rect x="775" y="246" width="50" height="30" rx="6" fill="#e0f2fe"/><circle cx="790" cy="261" r="4" fill="#22c55e"/><circle cx="804" cy="261" r="4" fill="#22c55e"/><rect x="845" y="246" width="50" height="30" rx="6" fill="#e0f2fe"/><circle cx="860" cy="261" r="4" fill="#22c55e"/><circle cx="874" cy="261" r="4" fill="#22c55e"/><rect x="915" y="246" width="50" height="30" rx="6" fill="#e0f2fe"/><circle cx="930" cy="261" r="4" fill="#22c55e"/><circle cx="944" cy="261" r="4" fill="#22c55e"/><rect x="985" y="246" width="50" height="30" rx="6" fill="#e0f2fe"/><circle cx="1000" cy="261" r="4" fill="#22c55e"/><circle cx="1014" cy="261" r="4" fill="#22c55e"/><rect x="1055" y="246" width="50" height="30" rx="6" fill="#e0f2fe"/><circle cx="1070" cy="261" r="4" fill="#22c55e"/><circle cx="1084" cy="261" r="4" fill="#22c55e"/><rect x="1125" y="246" width="50" height="30" rx="6" fill="#e0f2fe"/><circle cx="1140" cy="261" r="4" fill="#22c55e"/><circle cx="1154" cy="261" r="4" fill="#22c55e"/><rect x="1195" y="246" width="50" height="30" rx="6" fill="#e0f2fe"/><circle cx="1210" cy="261" r="4" fill="#22c55e"/><circle cx="1224" cy="261" r="4" fill="#22c55e"/><ellipse cx="1010" cy="130" rx="96" ry="84" fill="#ec4899"/><ellipse cx="980" cy="80" rx="30" ry="18" fill="#f9a8d4" fill-opacity=".6"/><circle cx="978" cy="136" r="18" fill="#fff"/><circle cx="981" cy="138" r="9" fill="#1e1b4b"/><circle cx="1042" cy="136" r="18" fill="#fff"/><circle cx="1045" cy="138" r="9" fill="#1e1b4b"/><path d="M992,170 q18,14 36,0" fill="none" stroke="#1e1b4b" stroke-width="6" stroke-linecap="round"/></g></svg>
